<svg width="606" height="50" viewBox="0 0 606 68" fill="none" xmlns="http://www.w3.org/2000/svg">
<path d="M19.6961 52.648C16.1441 52.648 13.4321 51.832 11.5601 50.2C9.68808 48.52 8.75208 46.096 8.75208 42.928V21.4H0.976075V15.352H8.75208V5.992L15.8801 4.264V15.352H26.6801V21.4H15.8801V41.272C15.8801 43.144 16.2881 44.488 17.1041 45.304C17.9681 46.072 19.3601 46.456 21.2801 46.456C22.2881 46.456 23.1761 46.384 23.9441 46.24C24.7601 46.096 25.6241 45.88 26.5361 45.592V51.64C25.5761 51.976 24.4481 52.216 23.1521 52.36C21.9041 52.552 20.7521 52.648 19.6961 52.648ZM29.1044 52V1.6L36.3044 0.0159955V19.096C39.1364 16.12 42.8084 14.632 47.3204 14.632C50.1524 14.632 52.6244 15.232 54.7364 16.432C56.8964 17.632 58.5764 19.312 59.7764 21.472C61.0244 23.632 61.6484 26.128 61.6484 28.96V52H54.4484V30.184C54.4484 27.304 53.6324 25.048 52.0004 23.416C50.3684 21.736 48.1364 20.896 45.3044 20.896C43.3844 20.896 41.6564 21.304 40.1204 22.12C38.5844 22.936 37.3124 24.112 36.3044 25.648V52H29.1044ZM84.644 52.648C81.044 52.648 77.78 51.808 74.852 50.128C71.972 48.448 69.668 46.168 67.94 43.288C66.26 40.408 65.42 37.192 65.42 33.64C65.42 30.136 66.236 26.968 67.868 24.136C69.5 21.256 71.708 18.976 74.492 17.296C77.276 15.568 80.372 14.704 83.78 14.704C87.188 14.704 90.212 15.568 92.852 17.296C95.492 18.976 97.58 21.28 99.116 24.208C100.7 27.088 101.492 30.352 101.492 34V36.016H72.62C73.004 38.032 73.748 39.832 74.852 41.416C76.004 43 77.444 44.248 79.172 45.16C80.948 46.072 82.868 46.528 84.932 46.528C86.708 46.528 88.412 46.264 90.044 45.736C91.724 45.16 93.116 44.344 94.22 43.288L98.828 47.824C96.668 49.456 94.436 50.68 92.132 51.496C89.876 52.264 87.38 52.648 84.644 52.648ZM72.692 30.616H94.364C94.076 28.696 93.404 27.016 92.348 25.576C91.34 24.088 90.068 22.936 88.532 22.12C87.044 21.256 85.412 20.824 83.636 20.824C81.812 20.824 80.132 21.232 78.596 22.048C77.06 22.864 75.764 24.016 74.708 25.504C73.7 26.944 73.028 28.648 72.692 30.616ZM124.476 52L114.252 15.352H121.236L128.364 42.28L136.716 15.352H142.908L151.26 42.28L158.388 15.352H165.156L154.86 52H147.948L139.74 25.144L131.46 52H124.476ZM178.52 52.648C175.88 52.648 173.552 52.192 171.536 51.28C169.52 50.32 167.936 49 166.784 47.32C165.632 45.64 165.056 43.696 165.056 41.488C165.056 38.032 166.376 35.32 169.016 33.352C171.656 31.336 175.28 30.328 179.888 30.328C183.488 30.328 186.824 31.024 189.896 32.416V28.528C189.896 25.888 189.128 23.92 187.592 22.624C186.104 21.328 183.896 20.68 180.968 20.68C179.288 20.68 177.536 20.944 175.712 21.472C173.888 21.952 171.848 22.72 169.592 23.776L166.928 18.376C169.712 17.08 172.304 16.144 174.704 15.568C177.104 14.944 179.528 14.632 181.976 14.632C186.728 14.632 190.4 15.76 192.992 18.016C195.632 20.272 196.952 23.488 196.952 27.664V52H189.896V48.832C188.264 50.128 186.512 51.088 184.64 51.712C182.768 52.336 180.728 52.648 178.52 52.648ZM171.968 41.344C171.968 43.12 172.712 44.56 174.2 45.664C175.736 46.768 177.728 47.32 180.176 47.32C182.096 47.32 183.848 47.032 185.432 46.456C187.064 45.88 188.552 44.992 189.896 43.792V37.6C188.504 36.784 187.04 36.208 185.504 35.872C184.016 35.488 182.336 35.296 180.464 35.296C177.824 35.296 175.736 35.848 174.2 36.952C172.712 38.008 171.968 39.472 171.968 41.344ZM204.113 67.48C203.345 67.48 202.625 67.432 201.953 67.336C201.281 67.288 200.729 67.192 200.297 67.048V60.712C201.161 60.904 202.217 61 203.465 61C206.825 61 209.249 59.2 210.737 55.6L212.321 52.072L197.633 15.352H205.625L216.281 43.288L228.089 15.352H235.865L218.153 56.536C217.001 59.128 215.777 61.216 214.481 62.8C213.185 64.432 211.697 65.608 210.017 66.328C208.337 67.096 206.369 67.48 204.113 67.48ZM252.072 67.48C251.304 67.48 250.584 67.432 249.912 67.336C249.24 67.288 248.688 67.192 248.256 67.048V60.712C249.12 60.904 250.176 61 251.424 61C254.784 61 257.208 59.2 258.696 55.6L260.28 52.072L245.592 15.352H253.584L264.24 43.288L276.048 15.352H283.824L266.112 56.536C264.96 59.128 263.736 61.216 262.44 62.8C261.144 64.432 259.656 65.608 257.976 66.328C256.296 67.096 254.328 67.48 252.072 67.48ZM301.785 52.72C298.233 52.72 294.993 51.88 292.065 50.2C289.185 48.52 286.905 46.24 285.225 43.36C283.545 40.48 282.705 37.264 282.705 33.712C282.705 30.16 283.545 26.944 285.225 24.064C286.905 21.184 289.185 18.904 292.065 17.224C294.993 15.496 298.233 14.632 301.785 14.632C305.385 14.632 308.625 15.496 311.505 17.224C314.385 18.904 316.665 21.184 318.345 24.064C320.025 26.944 320.865 30.16 320.865 33.712C320.865 37.264 320.025 40.48 318.345 43.36C316.665 46.24 314.385 48.52 311.505 50.2C308.625 51.88 305.385 52.72 301.785 52.72ZM301.785 46.384C304.041 46.384 306.081 45.832 307.905 44.728C309.729 43.576 311.169 42.04 312.225 40.12C313.281 38.2 313.809 36.04 313.809 33.64C313.809 31.288 313.257 29.176 312.153 27.304C311.097 25.384 309.657 23.848 307.833 22.696C306.057 21.544 304.041 20.968 301.785 20.968C299.529 20.968 297.489 21.544 295.665 22.696C293.889 23.848 292.449 25.384 291.345 27.304C290.289 29.176 289.761 31.288 289.761 33.64C289.761 36.04 290.289 38.2 291.345 40.12C292.401 42.04 293.841 43.576 295.665 44.728C297.489 45.832 299.529 46.384 301.785 46.384ZM338.978 52.72C336.146 52.72 333.65 52.12 331.49 50.92C329.33 49.72 327.65 48.04 326.45 45.88C325.25 43.672 324.65 41.152 324.65 38.32V15.352H331.778V37.096C331.778 39.976 332.594 42.256 334.226 43.936C335.906 45.616 338.138 46.456 340.922 46.456C342.89 46.456 344.642 46.048 346.178 45.232C347.714 44.368 348.962 43.168 349.922 41.632V15.352H357.122V52H349.922V48.256C347.09 51.232 343.442 52.72 338.978 52.72Z" fill="#2F2F2F"/>
<path d="M374.932 66.688V15.352H382.06V18.88C385.132 16.144 388.876 14.776 393.292 14.776C396.748 14.776 399.868 15.616 402.652 17.296C405.484 18.976 407.716 21.232 409.348 24.064C410.98 26.896 411.796 30.088 411.796 33.64C411.796 37.192 410.956 40.408 409.276 43.288C407.644 46.12 405.412 48.376 402.58 50.056C399.796 51.736 396.652 52.576 393.148 52.576C391.132 52.576 389.188 52.264 387.316 51.64C385.444 50.968 383.716 50.032 382.132 48.832V66.688H374.932ZM392.356 46.312C394.708 46.312 396.796 45.76 398.62 44.656C400.492 43.552 401.98 42.064 403.084 40.192C404.188 38.272 404.74 36.112 404.74 33.712C404.74 31.312 404.188 29.152 403.084 27.232C401.98 25.312 400.492 23.8 398.62 22.696C396.796 21.592 394.708 21.04 392.356 21.04C390.292 21.04 388.372 21.424 386.596 22.192C384.82 22.96 383.332 24.04 382.132 25.432V41.992C383.332 43.336 384.82 44.392 386.596 45.16C388.42 45.928 390.34 46.312 392.356 46.312ZM415.787 52V15.352H422.987V20.032C424.139 18.304 425.555 16.96 427.235 16C428.963 14.992 430.907 14.488 433.067 14.488C434.555 14.536 435.779 14.752 436.739 15.136V21.616C436.067 21.328 435.371 21.136 434.651 21.04C433.931 20.896 433.211 20.824 432.491 20.824C430.379 20.824 428.507 21.4 426.875 22.552C425.243 23.656 423.947 25.288 422.987 27.448V52H415.787ZM455.084 52.648C451.484 52.648 448.22 51.808 445.292 50.128C442.412 48.448 440.108 46.168 438.38 43.288C436.7 40.408 435.86 37.192 435.86 33.64C435.86 30.136 436.676 26.968 438.308 24.136C439.94 21.256 442.148 18.976 444.932 17.296C447.716 15.568 450.812 14.704 454.22 14.704C457.628 14.704 460.652 15.568 463.292 17.296C465.932 18.976 468.02 21.28 469.556 24.208C471.14 27.088 471.932 30.352 471.932 34V36.016H443.06C443.444 38.032 444.188 39.832 445.292 41.416C446.444 43 447.884 44.248 449.612 45.16C451.388 46.072 453.308 46.528 455.372 46.528C457.148 46.528 458.852 46.264 460.484 45.736C462.164 45.16 463.556 44.344 464.66 43.288L469.268 47.824C467.108 49.456 464.876 50.68 462.572 51.496C460.316 52.264 457.82 52.648 455.084 52.648ZM443.132 30.616H464.804C464.516 28.696 463.844 27.016 462.788 25.576C461.78 24.088 460.508 22.936 458.972 22.12C457.484 21.256 455.852 20.824 454.076 20.824C452.252 20.824 450.572 21.232 449.036 22.048C447.5 22.864 446.204 24.016 445.148 25.504C444.14 26.944 443.468 28.648 443.132 30.616ZM488.861 52.72C485.693 52.72 482.717 52.264 479.933 51.352C477.197 50.392 474.821 49.048 472.805 47.32L476.765 42.568C478.637 44.056 480.557 45.208 482.525 46.024C484.541 46.792 486.581 47.176 488.645 47.176C491.237 47.176 493.349 46.672 494.981 45.664C496.613 44.656 497.429 43.336 497.429 41.704C497.429 40.36 496.949 39.304 495.989 38.536C495.029 37.768 493.541 37.24 491.525 36.952L484.901 36.016C481.253 35.488 478.517 34.36 476.693 32.632C474.869 30.904 473.957 28.6 473.957 25.72C473.957 23.512 474.557 21.592 475.757 19.96C476.957 18.28 478.637 16.984 480.797 16.072C482.957 15.112 485.477 14.632 488.357 14.632C490.997 14.632 493.541 15.016 495.989 15.784C498.437 16.552 500.789 17.752 503.045 19.384L499.373 24.136C497.357 22.792 495.389 21.808 493.469 21.184C491.597 20.56 489.701 20.248 487.781 20.248C485.573 20.248 483.797 20.728 482.453 21.688C481.109 22.6 480.437 23.8 480.437 25.288C480.437 26.632 480.893 27.688 481.805 28.456C482.765 29.176 484.325 29.68 486.485 29.968L493.109 30.904C496.757 31.432 499.517 32.56 501.389 34.288C503.261 35.968 504.197 38.248 504.197 41.128C504.197 43.336 503.525 45.328 502.181 47.104C500.837 48.832 499.013 50.2 496.709 51.208C494.405 52.216 491.789 52.72 488.861 52.72ZM524.769 52.648C521.169 52.648 517.905 51.808 514.977 50.128C512.097 48.448 509.793 46.168 508.065 43.288C506.385 40.408 505.545 37.192 505.545 33.64C505.545 30.136 506.361 26.968 507.993 24.136C509.625 21.256 511.833 18.976 514.617 17.296C517.401 15.568 520.497 14.704 523.905 14.704C527.313 14.704 530.337 15.568 532.977 17.296C535.617 18.976 537.705 21.28 539.241 24.208C540.825 27.088 541.617 30.352 541.617 34V36.016H512.745C513.129 38.032 513.873 39.832 514.977 41.416C516.129 43 517.569 44.248 519.297 45.16C521.073 46.072 522.993 46.528 525.057 46.528C526.833 46.528 528.537 46.264 530.169 45.736C531.849 45.16 533.241 44.344 534.345 43.288L538.953 47.824C536.793 49.456 534.561 50.68 532.257 51.496C530.001 52.264 527.505 52.648 524.769 52.648ZM512.817 30.616H534.489C534.201 28.696 533.529 27.016 532.473 25.576C531.465 24.088 530.193 22.936 528.657 22.12C527.169 21.256 525.537 20.824 523.761 20.824C521.937 20.824 520.257 21.232 518.721 22.048C517.185 22.864 515.889 24.016 514.833 25.504C513.825 26.944 513.153 28.648 512.817 30.616ZM545.595 52V15.352H552.795V19.096C555.627 16.12 559.299 14.632 563.811 14.632C566.643 14.632 569.115 15.232 571.227 16.432C573.387 17.632 575.067 19.312 576.267 21.472C577.515 23.632 578.139 26.128 578.139 28.96V52H570.939V30.184C570.939 27.304 570.123 25.048 568.491 23.416C566.907 21.736 564.675 20.896 561.795 20.896C559.875 20.896 558.147 21.304 556.611 22.12C555.075 22.936 553.803 24.112 552.795 25.648V52H545.595ZM598.208 52.648C594.656 52.648 591.944 51.832 590.072 50.2C588.2 48.52 587.264 46.096 587.264 42.928V21.4H579.488V15.352H587.264V5.992L594.392 4.264V15.352H605.192V21.4H594.392V41.272C594.392 43.144 594.8 44.488 595.616 45.304C596.48 46.072 597.872 46.456 599.792 46.456C600.8 46.456 601.688 46.384 602.456 46.24C603.272 46.096 604.136 45.88 605.048 45.592V51.64C604.088 51.976 602.96 52.216 601.664 52.36C600.416 52.552 599.264 52.648 598.208 52.648Z" fill="#004FBA"/>
</svg>
