<svg width="39" height="57" viewBox="0 0 39 57" fill="none" xmlns="http://www.w3.org/2000/svg">
<circle cx="19.5" cy="19.5" r="19.5" fill="#EA8F8F"/>
<path d="M13.1174 28.8268C12.6365 28.8268 12.2248 28.6884 11.8824 28.4117C11.54 28.135 11.3687 27.8024 11.3687 27.4138V13.9899H10.1738V12.5768H15.6529V11.0225H19.4999H23.3469V12.5768H28.826V13.9899H27.6311V27.4138C27.6311 27.7906 27.4562 28.1203 27.1065 28.4029C26.7568 28.6855 26.3488 28.8268 25.8825 28.8268H13.1174ZM25.8825 13.9899H13.1174V27.4138H25.8825V13.9899ZM16.2066 25.3884H17.9553V15.9917H16.2066V25.3884ZM21.0445 25.3884H22.7932V15.9917H21.0445V25.3884Z" fill="#FDFDFD"/>
<path d="M9.96342 51H9.08274C9.03066 50.7467 8.93951 50.5241 8.8093 50.3324C8.68146 50.1406 8.52521 49.9796 8.34055 49.8494C8.15826 49.7169 7.95585 49.6174 7.73331 49.5511C7.51077 49.4848 7.27876 49.4517 7.03729 49.4517C6.59695 49.4517 6.19804 49.563 5.84055 49.7855C5.48544 50.008 5.20253 50.3359 4.99183 50.7692C4.7835 51.2024 4.67933 51.7339 4.67933 52.3636C4.67933 52.9934 4.7835 53.5249 4.99183 53.9581C5.20253 54.3913 5.48544 54.7192 5.84055 54.9418C6.19804 55.1643 6.59695 55.2756 7.03729 55.2756C7.27876 55.2756 7.51077 55.2424 7.73331 55.1761C7.95585 55.1098 8.15826 55.0116 8.34055 54.8814C8.52521 54.7488 8.68146 54.5866 8.8093 54.3949C8.93951 54.2008 9.03066 53.9782 9.08274 53.7273H9.96342C9.89714 54.099 9.7764 54.4316 9.60121 54.7251C9.42602 55.0187 9.20822 55.2685 8.9478 55.4744C8.68738 55.678 8.39501 55.8331 8.07067 55.9396C7.7487 56.0462 7.40424 56.0994 7.03729 56.0994C6.41702 56.0994 5.86541 55.9479 5.38246 55.6449C4.8995 55.3419 4.51953 54.911 4.24254 54.3523C3.96555 53.7936 3.82706 53.1307 3.82706 52.3636C3.82706 51.5966 3.96555 50.9337 4.24254 50.375C4.51953 49.8163 4.8995 49.3854 5.38246 49.0824C5.86541 48.7794 6.41702 48.6278 7.03729 48.6278C7.40424 48.6278 7.7487 48.6811 8.07067 48.7876C8.39501 48.8942 8.68738 49.0504 8.9478 49.2564C9.20822 49.46 9.42602 49.7086 9.60121 50.0021C9.7764 50.2933 9.89714 50.6259 9.96342 51ZM12.878 56.1278C12.5324 56.1278 12.2187 56.0627 11.937 55.9325C11.6552 55.8 11.4315 55.6094 11.2658 55.3608C11.1001 55.1098 11.0172 54.8068 11.0172 54.4517C11.0172 54.1392 11.0788 53.8859 11.2019 53.6918C11.325 53.4953 11.4895 53.3414 11.6955 53.2301C11.9015 53.1188 12.1287 53.036 12.3773 52.9815C12.6283 52.9247 12.8804 52.8797 13.1337 52.8466C13.4651 52.804 13.7338 52.772 13.9398 52.7507C14.1481 52.727 14.2997 52.688 14.3944 52.6335C14.4914 52.5791 14.54 52.4844 14.54 52.3494V52.321C14.54 51.9706 14.4441 51.6984 14.2523 51.5043C14.0629 51.3101 13.7753 51.2131 13.3894 51.2131C12.9893 51.2131 12.6756 51.3007 12.4483 51.4759C12.2211 51.651 12.0613 51.8381 11.9689 52.0369L11.1735 51.7528C11.3155 51.4214 11.5049 51.1634 11.7417 50.9787C11.9808 50.7917 12.2412 50.6615 12.5229 50.5881C12.807 50.5123 13.0864 50.4744 13.361 50.4744C13.5362 50.4744 13.7374 50.4957 13.9647 50.5384C14.1943 50.5786 14.4157 50.6626 14.6287 50.7905C14.8442 50.9183 15.0229 51.1113 15.165 51.3693C15.307 51.6274 15.378 51.973 15.378 52.4062V56H14.54V55.2614H14.4973C14.4405 55.3797 14.3458 55.5064 14.2132 55.6413C14.0807 55.7763 13.9043 55.8911 13.6841 55.9858C13.464 56.0805 13.1953 56.1278 12.878 56.1278ZM13.0059 55.375C13.3373 55.375 13.6167 55.3099 13.8439 55.1797C14.0736 55.0495 14.2464 54.8814 14.3624 54.6754C14.4808 54.4695 14.54 54.2528 14.54 54.0256V53.2585C14.5044 53.3011 14.4263 53.3402 14.3056 53.3757C14.1872 53.4089 14.0499 53.4384 13.8936 53.4645C13.7398 53.4882 13.5894 53.5095 13.4426 53.5284C13.2982 53.545 13.181 53.5592 13.0911 53.571C12.8733 53.5994 12.6697 53.6456 12.4803 53.7095C12.2933 53.7711 12.1417 53.8646 12.0257 53.9901C11.9121 54.1132 11.8553 54.2812 11.8553 54.4943C11.8553 54.7855 11.963 55.0057 12.1784 55.1548C12.3962 55.3016 12.6721 55.375 13.0059 55.375ZM17.7457 52.7188V56H16.9077V50.5455H17.7173V51.3977H17.7884C17.9162 51.1207 18.1103 50.8982 18.3707 50.7301C18.6312 50.5597 18.9673 50.4744 19.3793 50.4744C19.7486 50.4744 20.0717 50.5502 20.3487 50.7017C20.6257 50.8509 20.8411 51.0781 20.995 51.3835C21.1489 51.6866 21.2259 52.0701 21.2259 52.5341V56H20.3878V52.5909C20.3878 52.1624 20.2765 51.8286 20.054 51.5895C19.8314 51.348 19.526 51.2273 19.1378 51.2273C18.8703 51.2273 18.6312 51.2853 18.4205 51.4013C18.2121 51.5173 18.0476 51.6866 17.9268 51.9091C17.8061 52.1316 17.7457 52.4015 17.7457 52.7188ZM24.9732 56.1136C24.4618 56.1136 24.0215 55.9929 23.6522 55.7514C23.2828 55.5099 22.9988 55.1773 22.7999 54.7536C22.601 54.3298 22.5016 53.8456 22.5016 53.3011C22.5016 52.7472 22.6034 52.2583 22.807 51.8345C23.013 51.4084 23.2994 51.0758 23.6664 50.8366C24.0357 50.5952 24.4666 50.4744 24.959 50.4744C25.3425 50.4744 25.6882 50.5455 25.9959 50.6875C26.3037 50.8295 26.5558 51.0284 26.7523 51.2841C26.9488 51.5398 27.0707 51.8381 27.1181 52.179H26.28C26.2161 51.9304 26.074 51.7102 25.8539 51.5185C25.6361 51.3243 25.3425 51.2273 24.9732 51.2273C24.6465 51.2273 24.36 51.3125 24.1138 51.483C23.87 51.651 23.6794 51.889 23.5421 52.1967C23.4071 52.5021 23.3397 52.8608 23.3397 53.2727C23.3397 53.6941 23.406 54.0611 23.5385 54.3736C23.6735 54.6861 23.8629 54.9287 24.1067 55.1016C24.3529 55.2744 24.6417 55.3608 24.9732 55.3608C25.191 55.3608 25.3887 55.3229 25.5662 55.2472C25.7438 55.1714 25.8941 55.0625 26.0172 54.9205C26.1403 54.7784 26.2279 54.608 26.28 54.4091H27.1181C27.0707 54.7311 26.9535 55.0211 26.7665 55.2791C26.5819 55.5348 26.3368 55.7384 26.0314 55.8899C25.7284 56.0391 25.3757 56.1136 24.9732 56.1136ZM30.6301 56.1136C30.1046 56.1136 29.6512 55.9976 29.2701 55.7656C28.8913 55.5312 28.5989 55.2045 28.3929 54.7855C28.1893 54.3641 28.0875 53.8741 28.0875 53.3153C28.0875 52.7566 28.1893 52.2642 28.3929 51.8381C28.5989 51.4096 28.8854 51.0758 29.2523 50.8366C29.6216 50.5952 30.0525 50.4744 30.5449 50.4744C30.829 50.4744 31.1096 50.5218 31.3865 50.6165C31.6635 50.7112 31.9157 50.8651 32.1429 51.0781C32.3702 51.2888 32.5513 51.5682 32.6863 51.9162C32.8212 52.2642 32.8887 52.6927 32.8887 53.2017V53.5568H28.6841V52.8324H32.0364C32.0364 52.5246 31.9748 52.25 31.8517 52.0085C31.731 51.767 31.5582 51.5765 31.3333 51.4368C31.1107 51.2971 30.848 51.2273 30.5449 51.2273C30.2111 51.2273 29.9223 51.3101 29.6784 51.4759C29.437 51.6392 29.2511 51.8523 29.1209 52.1151C28.9907 52.3778 28.9256 52.6596 28.9256 52.9602V53.4432C28.9256 53.8551 28.9966 54.2043 29.1387 54.4908C29.2831 54.7749 29.4831 54.9915 29.7388 55.1406C29.9945 55.2874 30.2916 55.3608 30.6301 55.3608C30.8503 55.3608 31.0492 55.33 31.2267 55.2685C31.4067 55.2045 31.5617 55.1098 31.6919 54.9844C31.8221 54.8565 31.9228 54.6979 31.9938 54.5085L32.8034 54.7358C32.7182 55.0104 32.575 55.2519 32.3738 55.4602C32.1725 55.6662 31.9239 55.8272 31.628 55.9432C31.3321 56.0568 30.9995 56.1136 30.6301 56.1136ZM35.0016 48.7273V56H34.1635V48.7273H35.0016Z" fill="#990000"/>
</svg>
