<svg width="200" height="200" viewBox="0 0 235 235" fill="none" xmlns="http://www.w3.org/2000/svg">
<path d="M207.498 122.413L175.963 77.2556C175.454 76.5258 174.472 76.3055 173.698 76.7461C168.347 79.803 161.859 79.9843 156.346 77.2281L140.268 69.189C132.833 65.4712 124.137 65.104 116.415 68.1838L101.365 74.1827C99.2373 75.0318 97.3188 76.2573 95.6825 77.7995C94.5763 77.6572 93.4541 77.5815 92.3342 77.5815C88.3732 77.5815 84.3961 78.4949 80.8343 80.2252C77.2313 81.974 72.9077 81.6986 69.5525 79.5092L60.4348 73.5539C60.0515 73.3038 59.5857 73.2166 59.1405 73.3106C58.6929 73.4047 58.3028 73.6709 58.0527 74.0542L27.9341 120.168C27.4155 120.965 27.6381 122.032 28.4344 122.55L39.4569 129.75C40.6503 130.528 41.6646 131.521 42.4701 132.701C43.2779 133.883 43.8333 135.189 44.1248 136.584C44.671 139.182 45.9492 141.589 47.7737 143.503L45.4971 146.989C42.2108 152.022 43.6314 158.792 48.6641 162.078C50.4404 163.239 52.4989 163.852 54.6149 163.852C56.1892 163.852 57.7084 163.515 59.0946 162.893C59.09 163.669 59.1634 164.449 59.3263 165.227C59.9253 168.077 61.596 170.524 64.0332 172.114C65.8095 173.275 67.868 173.888 69.9862 173.888C71.5606 173.888 73.0844 173.551 74.4705 172.926C74.443 176.516 76.1825 180.05 79.4046 182.154C81.1809 183.315 83.2394 183.928 85.3553 183.928C86.9297 183.928 88.4512 183.591 89.835 182.969C89.8304 183.745 89.9039 184.527 90.0668 185.303C90.6658 188.153 92.3365 190.6 94.7737 192.19C96.55 193.351 98.6085 193.964 100.727 193.964C104.426 193.964 107.841 192.116 109.861 189.023L111.894 185.911L124.325 193.948C126.161 195.146 128.227 195.719 130.269 195.719C133.831 195.719 137.324 193.98 139.412 190.783C140.993 188.362 141.482 185.539 141.007 182.895C142.68 183.869 144.548 184.371 146.451 184.371C147.201 184.371 147.959 184.293 148.711 184.135C151.562 183.536 154.008 181.865 155.598 179.428C157.23 176.931 157.7 174.007 157.147 171.292C158.745 171.972 160.431 172.302 162.107 172.302C166.267 172.302 170.35 170.269 172.79 166.533C174.811 163.437 175.307 159.776 174.465 156.446C176.305 157.399 178.3 157.86 180.28 157.86C184.452 157.86 188.553 155.825 190.984 152.104C192.34 150.028 193.056 147.625 193.056 145.151C193.056 143.239 192.62 141.344 191.794 139.625C192.615 136.368 194.566 133.534 197.336 131.597L207.06 124.806C207.851 124.265 208.042 123.191 207.498 122.413ZM188.113 150.225C185.35 154.454 179.631 155.698 175.364 152.997C175.353 152.99 175.342 152.983 175.33 152.977C175.305 152.961 175.277 152.944 175.247 152.924L141.432 130.837L139.55 133.72L167.217 151.79C171.509 154.592 172.718 160.364 169.916 164.655C168.558 166.735 166.474 168.16 164.044 168.669C161.613 169.179 159.13 168.713 157.053 167.354L149.645 162.517L129.383 149.284L127.502 152.166L150.559 167.226C154.001 169.475 154.974 174.106 152.725 177.548C151.635 179.217 149.962 180.36 148.011 180.77C146.061 181.179 144.069 180.805 142.4 179.715L119.343 164.655L117.461 167.538L134.37 178.581C137.813 180.83 138.786 185.461 136.537 188.904C134.288 192.346 129.657 193.319 126.207 191.065L113.783 183.033L114.675 181.668C116.268 179.23 116.816 176.318 116.217 173.468C115.618 170.618 113.948 168.171 111.508 166.581C109.732 165.42 107.673 164.807 105.555 164.807C103.979 164.807 102.457 165.144 101.071 165.768C101.099 162.179 99.3589 158.647 96.1369 156.543C94.3583 155.382 92.2998 154.767 90.1839 154.767C88.6118 154.767 87.0926 155.104 85.7065 155.726C85.7111 154.95 85.6376 154.17 85.4747 153.392C84.8757 150.542 83.205 148.095 80.7655 146.505C78.9892 145.344 76.9307 144.731 74.8125 144.731C73.2359 144.731 71.7143 145.068 70.3282 145.692C70.3557 142.103 68.6162 138.571 65.3941 136.467C63.6156 135.306 61.557 134.691 59.4411 134.691C55.744 134.691 52.3291 136.538 50.3073 139.632L49.7267 140.52C48.6297 139.182 47.854 137.585 47.496 135.882C47.1128 134.041 46.3784 132.32 45.3135 130.762C44.2487 129.206 42.9108 127.898 41.3387 126.872L31.7574 120.614L59.9919 77.375L67.6684 82.3894C72.0287 85.2374 77.649 85.5931 82.3352 83.3211C85.4334 81.8179 88.8895 81.0216 92.3319 81.0216C92.543 81.0216 92.7542 81.0285 92.963 81.0331C92.9515 81.0491 92.9423 81.0652 92.9309 81.0812L77.2176 105.139C76.5543 106.153 76.3271 107.365 76.575 108.551C76.8228 109.738 77.5205 110.755 78.5348 111.418L79.641 112.141C82.9434 114.298 86.6589 115.328 90.3376 115.326C96.745 115.326 103.035 112.196 106.794 106.44L114.228 95.0573C115.286 93.4394 117.464 92.9827 119.079 94.0384L185.412 137.362C186.708 138.209 187.739 139.322 188.473 140.669C188.473 140.669 188.473 140.671 188.475 140.671C189.226 142.041 189.623 143.59 189.623 145.153C189.625 146.957 189.102 148.71 188.113 150.225Z" fill="#004FBA"/>
</svg>
