<svg width="13" height="14" viewBox="0 0 16 18" fill="none" xmlns="http://www.w3.org/2000/svg">
<path d="M12.9997 15H4.33301C4.06634 15 3.83301 14.8875 3.63301 14.6625C3.43301 14.4375 3.33301 14.175 3.33301 13.875V1.875C3.33301 1.575 3.43301 1.3125 3.63301 1.0875C3.83301 0.8625 4.06634 0.75 4.33301 0.75H10.133L13.9997 5.1V13.875C13.9997 14.175 13.8997 14.4375 13.6997 14.6625C13.4997 14.8875 13.2663 15 12.9997 15ZM9.63301 5.5875V1.875H4.33301V13.875H12.9997V5.5875H9.63301ZM2.33301 17.25C2.06634 17.25 1.83301 17.1375 1.63301 16.9125C1.43301 16.6875 1.33301 16.425 1.33301 16.125V4.51875H2.33301V16.125H10.633V17.25H2.33301Z" fill="#A8A8A8"/>
</svg>
