<svg width="74" height="56" viewBox="0 0 74 56" fill="none" xmlns="http://www.w3.org/2000/svg">
<path d="M74 32.9162C74 33.7301 73.593 34.5965 72.7791 35.5155L59.5466 51.111C58.4176 52.45 56.8357 53.5855 54.801 54.5176C52.7662 55.4496 50.8824 55.9157 49.1495 55.9157H6.30123C5.40855 55.9157 4.61433 55.745 3.91857 55.4037C3.22281 55.0624 2.87493 54.4979 2.87493 53.7102C2.87493 52.8963 3.28189 52.0299 4.09581 51.111L17.3283 35.5155C18.4573 34.1764 20.0392 33.0409 22.074 32.1089C24.1087 31.1768 25.9926 30.7108 27.7254 30.7108H70.5737C71.4664 30.7108 72.2606 30.8814 72.9564 31.2227C73.6521 31.5641 74 32.1285 74 32.9162ZM60.4917 19.3686V25.6698H27.7254C25.2574 25.6698 22.6713 26.2933 19.967 27.5405C17.2627 28.7876 15.1098 30.3563 13.5083 32.2467L0.236288 47.8422L0.0393951 48.0785C0.0393951 47.9735 0.0328292 47.8094 0.0196975 47.5862C0.00656585 47.3631 0 47.199 0 47.094V9.28658C0 6.87112 0.866417 4.79696 2.59925 3.06409C4.33208 1.33126 6.40624 0.464844 8.82173 0.464844H21.4242C23.8396 0.464844 25.9138 1.33126 27.6466 3.06409C29.3795 4.79693 30.2459 6.87109 30.2459 9.28658V10.5468H51.67C54.0855 10.5468 56.1597 11.4132 57.8925 13.1461C59.6253 14.8789 60.4917 16.9531 60.4917 19.3686Z" fill="#004FBA"/>
</svg>
