<svg width="20px" height="20px" viewBox="0 0 0.375 0.375" fill="none" xmlns="http://www.w3.org/2000/svg"><path fill-rule="evenodd" clip-rule="evenodd" d="M0.062 0.025h0.25a0.038 0.038 0 0 1 0.038 0.037v0.25a0.038 0.038 0 0 1 -0.038 0.038H0.062A0.038 0.038 0 0 1 0.025 0.312V0.062A0.038 0.038 0 0 1 0.062 0.025Zm0 0.025a0.012 0.012 0 0 0 -0.012 0.012v0.146L0.092 0.167a0.011 0.011 0 0 1 0.016 0l0.089 0.095 0.07 -0.07a0.011 0.011 0 0 1 0.016 0l0.042 0.042V0.062A0.012 0.012 0 0 0 0.313 0.05H0.063ZM0.05 0.312V0.241L0.1 0.191 0.188 0.286l0.036 0.039H0.062A0.012 0.012 0 0 1 0.05 0.313Zm0.262 0.012H0.254L0.212 0.279 0.275 0.216l0.05 0.05v0.046a0.012 0.012 0 0 1 -0.012 0.012ZM0.166 0.138a0.021 0.021 0 1 1 0.042 0 0.021 0.021 0 0 1 -0.042 0ZM0.188 0.094a0.044 0.044 0 1 0 0 0.088 0.044 0.044 0 0 0 0 -0.088Z" fill="#000000"/></svg>