<svg width="30" height="30" viewBox="0 0 35 35" fill="none" xmlns="http://www.w3.org/2000/svg">
<g clip-path="url(#clip0_1099_476)">
<path d="M24.6057 12.1242C24.4539 11.7309 24.2213 11.3738 23.9231 11.0758C23.6248 10.7779 23.2674 10.5457 22.874 10.3943C22.3322 10.1936 21.76 10.0876 21.1823 10.0807C20.2216 10.037 19.9336 10.026 17.5 10.026C15.0664 10.026 14.7784 10.037 13.8177 10.0807C13.2394 10.0873 12.6666 10.1934 12.1242 10.3943C11.7309 10.5461 11.3738 10.7787 11.0758 11.0769C10.7779 11.3752 10.5457 11.7326 10.3943 12.126C10.1936 12.6678 10.0876 13.24 10.0807 13.8177C10.037 14.7784 10.0261 15.0664 10.0261 17.5C10.0261 19.9336 10.037 20.2216 10.0807 21.1823C10.0874 21.7606 10.1934 22.3334 10.3943 22.8758C10.5461 23.2691 10.7787 23.6262 11.077 23.9242C11.3752 24.2221 11.7326 24.4543 12.1261 24.6057C12.6678 24.8064 13.24 24.9124 13.8177 24.9193C14.7784 24.963 15.0664 24.9721 17.5 24.9721C19.9336 24.9721 20.2216 24.963 21.1823 24.9174C21.7605 24.9114 22.3333 24.806 22.8758 24.6057C23.2691 24.4539 23.6262 24.2213 23.9242 23.9231C24.2221 23.6248 24.4543 23.2674 24.6057 22.874C24.8064 22.3322 24.9125 21.76 24.9193 21.1823C24.963 20.2216 24.9721 19.9336 24.9721 17.5C24.9721 15.0664 24.963 14.7784 24.9175 13.8177C24.9114 13.2395 24.806 12.6667 24.6057 12.1242ZM17.5 22.1813C16.5741 22.1813 15.6691 21.9067 14.8992 21.3923C14.1294 20.8779 13.5294 20.1468 13.1751 19.2914C12.8208 18.4361 12.7281 17.4948 12.9087 16.5867C13.0893 15.6787 13.5352 14.8445 14.1899 14.1899C14.8445 13.5352 15.6787 13.0893 16.5867 12.9087C17.4948 12.7281 18.4361 12.8208 19.2914 13.1751C20.1468 13.5294 20.8779 14.1294 21.3923 14.8992C21.9067 15.6691 22.1813 16.5741 22.1813 17.5C22.1813 18.7415 21.6881 19.9322 20.8102 20.8101C19.9323 21.6881 18.7416 22.1813 17.5 22.1813ZM22.3654 13.7284C22.1491 13.7284 21.9376 13.6642 21.7577 13.5441C21.5779 13.4239 21.4377 13.2531 21.3549 13.0532C21.2721 12.8533 21.2504 12.6334 21.2926 12.4213C21.3348 12.2091 21.439 12.0142 21.592 11.8612C21.7449 11.7083 21.9398 11.6041 22.152 11.5619C22.3642 11.5197 22.5841 11.5414 22.7839 11.6241C22.9838 11.7069 23.1546 11.8471 23.2748 12.027C23.395 12.2068 23.4591 12.4183 23.4591 12.6346C23.4591 12.9247 23.3439 13.2029 23.1388 13.408C22.9337 13.6132 22.6555 13.7284 22.3654 13.7284ZM20.5388 17.5C20.5388 18.101 20.3606 18.6885 20.0267 19.1883C19.6928 19.688 19.2182 20.0775 18.6629 20.3075C18.1076 20.5375 17.4966 20.5977 16.9072 20.4804C16.3177 20.3632 15.7762 20.0737 15.3513 19.6488C14.9263 19.2238 14.6368 18.6823 14.5196 18.0928C14.4023 17.5034 14.4625 16.8924 14.6925 16.3371C14.9225 15.7818 15.312 15.3072 15.8117 14.9733C16.3115 14.6394 16.899 14.4612 17.5 14.4612C18.306 14.4612 19.0789 14.7814 19.6488 15.3512C20.2187 15.9211 20.5388 16.6941 20.5388 17.5ZM17.5 0C14.0388 0 10.6554 1.02636 7.77753 2.94928C4.89967 4.87221 2.65665 7.60533 1.33212 10.803C0.00758243 14.0007 -0.338976 17.5194 0.336266 20.9141C1.01151 24.3088 2.67822 27.427 5.12564 29.8744C7.57306 32.3218 10.6913 33.9885 14.0859 34.6637C17.4806 35.339 20.9993 34.9924 24.197 33.6679C27.3947 32.3434 30.1278 30.1003 32.0507 27.2225C33.9737 24.3446 35 20.9612 35 17.5C35 12.8587 33.1563 8.40752 29.8744 5.12563C26.5925 1.84374 22.1413 0 17.5 0ZM26.5599 21.257C26.5445 22.0134 26.4009 22.7617 26.1352 23.4701C25.9011 24.0754 25.5431 24.6252 25.0841 25.0841C24.6252 25.5431 24.0754 25.9011 23.4701 26.1352C22.7623 26.4006 22.0146 26.5443 21.2589 26.5599C20.2854 26.6036 19.9755 26.6146 17.5 26.6146C15.0245 26.6146 14.7146 26.6036 13.7412 26.5599C12.9854 26.5443 12.2377 26.4006 11.53 26.1352C10.9246 25.9011 10.3748 25.5431 9.9159 25.0841C9.45696 24.6252 9.09896 24.0754 8.86485 23.4701C8.59936 22.7623 8.45575 22.0146 8.44011 21.2589C8.39636 20.2854 8.38543 19.9755 8.38543 17.5C8.38543 15.0245 8.39636 14.7146 8.44011 13.7411C8.45517 12.9855 8.59816 12.2378 8.86303 11.5299C9.09712 10.9241 9.45531 10.3739 9.91458 9.91458C10.3739 9.4553 10.9241 9.09712 11.53 8.86302C12.2378 8.59816 12.9855 8.45516 13.7412 8.44011C14.7146 8.39636 15.0245 8.38542 17.5 8.38542C19.9755 8.38542 20.2854 8.39636 21.2589 8.44011C22.0145 8.45516 22.7622 8.59816 23.4701 8.86302C24.0756 9.09733 24.6255 9.45561 25.0844 9.91488C25.5434 10.3741 25.9013 10.9243 26.1352 11.5299C26.4007 12.2377 26.5443 12.9854 26.5599 13.7411C26.6037 14.7146 26.6146 15.0245 26.6146 17.5C26.6146 19.9755 26.6037 20.2836 26.5599 21.257Z" fill="black"/>
</g>
<defs>
<clipPath id="clip0_1099_476">
<rect width="35" height="35" fill="white"/>
</clipPath>
</defs>
</svg>
