<svg width="33" height="16" viewBox="0 0 33 16" fill="none" xmlns="http://www.w3.org/2000/svg">
<mask id="path-1-inside-1_1078_316" fill="white">
<path fill-rule="evenodd" clip-rule="evenodd" d="M8.95213 -7.72476e-05L0 7.79415L8.95213 15.5884V11.7944L33 11.7944V3.79436L8.95213 3.79436L8.95213 -7.72476e-05Z"/>
</mask>
<path fill-rule="evenodd" clip-rule="evenodd" d="M8.95213 -7.72476e-05L0 7.79415L8.95213 15.5884V11.7944L33 11.7944V3.79436L8.95213 3.79436L8.95213 -7.72476e-05Z" fill="white"/>
<path d="M0 7.79415L-0.328323 7.41705L-0.761444 7.79415L-0.328323 8.17125L0 7.79415ZM8.95213 -7.72476e-05H9.45213V-1.09836L8.6238 -0.377176L8.95213 -7.72476e-05ZM8.95213 15.5884L8.6238 15.9655L9.45213 16.6867V15.5884H8.95213ZM8.95213 11.7944V11.2944H8.45213V11.7944H8.95213ZM33 11.7944V12.2944H33.5V11.7944H33ZM33 3.79436H33.5V3.29436H33V3.79436ZM8.95213 3.79436H8.45213V4.29436H8.95213V3.79436ZM0.328323 8.17125L9.28045 0.377022L8.6238 -0.377176L-0.328323 7.41705L0.328323 8.17125ZM9.28045 15.2113L0.328323 7.41705L-0.328323 8.17125L8.6238 15.9655L9.28045 15.2113ZM8.45213 11.7944V15.5884H9.45213V11.7944H8.45213ZM33 11.2944L8.95213 11.2944V12.2944L33 12.2944V11.2944ZM32.5 3.79436V11.7944H33.5V3.79436H32.5ZM8.95213 4.29436L33 4.29436V3.29436L8.95213 3.29436V4.29436ZM8.45213 -7.72476e-05L8.45213 3.79436H9.45213L9.45213 -7.72476e-05H8.45213Z" fill="black" mask="url(#path-1-inside-1_1078_316)"/>
</svg>
