<svg width="30" height="30" viewBox="0 0 35 35" fill="none" xmlns="http://www.w3.org/2000/svg">
<g clip-path="url(#clip0_1099_483)">
<path fill-rule="evenodd" clip-rule="evenodd" d="M17.5053 0C27.1662 0 35.0105 7.83378 35.0105 17.5053C35.0105 27.1662 27.1767 35.0105 17.5053 35.0105C7.84428 35.0105 0 27.1767 0 17.5053C0 7.84428 7.83378 0 17.5053 0ZM15.2475 14.0294H18.8389V15.8671H18.8914C19.3954 14.964 20.6136 14.0294 22.4407 14.0294C26.2316 14.0294 26.9352 16.3921 26.9352 19.4584V25.7171H23.1863V20.1725C23.1863 18.8494 23.1548 17.1482 21.2331 17.1482C19.2799 17.1482 18.9859 18.5869 18.9859 20.078V25.7171H15.237V14.0294H15.2475ZM12.6538 10.7846C12.6538 11.8557 11.7822 12.7378 10.7006 12.7378C9.62946 12.7378 8.74737 11.8662 8.74737 10.7846C8.74737 9.71347 9.61896 8.83138 10.7006 8.83138C11.7717 8.83138 12.6538 9.70297 12.6538 10.7846ZM8.75788 14.0294H12.6538V25.7171H8.75788V14.0294Z" fill="black"/>
</g>
<defs>
<clipPath id="clip0_1099_483">
<rect width="35" height="35" fill="white"/>
</clipPath>
</defs>
</svg>
