<svg width="16" height="18" viewBox="0 0 14 15" fill="none" xmlns="http://www.w3.org/2000/svg">
<path d="M5.58574 9.53125L9.47949 6.875L5.58574 4.21875V9.53125ZM4.81283 13.125V11.875H2.04199C1.80866 11.875 1.60449 11.7812 1.42949 11.5938C1.25449 11.4062 1.16699 11.1875 1.16699 10.9375V2.8125C1.16699 2.5625 1.25449 2.34375 1.42949 2.15625C1.60449 1.96875 1.80866 1.875 2.04199 1.875H11.9587C12.192 1.875 12.3962 1.96875 12.5712 2.15625C12.7462 2.34375 12.8337 2.5625 12.8337 2.8125V10.9375C12.8337 11.1875 12.7462 11.4062 12.5712 11.5938C12.3962 11.7812 12.192 11.875 11.9587 11.875H9.18783V13.125H4.81283ZM2.04199 10.9375H11.9587V2.8125H2.04199V10.9375Z" fill="white"/>
</svg>
