<svg width="75" height="52" viewBox="0 0 75 52" fill="none" xmlns="http://www.w3.org/2000/svg">
<path d="M32.2266 12.123C28.5156 12.2207 25.5615 12.8311 23.3643 13.9541C21.167 15.0283 19.4336 16.7373 18.1641 19.0811C23.2422 19.0811 27.4414 20.3262 30.7617 22.8164C34.1309 25.3066 35.8154 29.3594 35.8154 34.9746C35.8154 37.0742 35.4492 39.125 34.7168 41.127C33.9844 43.1289 32.8613 44.9111 31.3477 46.4736C29.834 47.9873 28.0029 49.2568 25.8545 50.2822C23.7061 51.2588 21.2402 51.7471 18.457 51.7471C12.9395 51.7471 8.49609 49.9648 5.12695 46.4004C1.80664 42.7871 0.146484 37.9775 0.146484 31.9717C0.146484 28.6514 0.610352 25.3066 1.53809 21.9375C2.51465 18.5195 4.22363 15.3701 6.66504 12.4893C9.10645 9.55957 12.4023 6.99609 16.5527 4.79883C20.7031 2.60156 25.9277 1.06348 32.2266 0.18457V12.123ZM71.2646 12.123C67.5537 12.2207 64.5996 12.8311 62.4023 13.9541C60.2051 15.0283 58.4473 16.7373 57.1289 19.0811C62.2559 19.0811 66.4795 20.3262 69.7998 22.8164C73.1689 25.3066 74.8535 29.3594 74.8535 34.9746C74.8535 37.0742 74.4629 39.125 73.6816 41.127C72.9492 43.1289 71.8262 44.9111 70.3125 46.4736C68.8477 47.9873 67.041 49.2568 64.8926 50.2822C62.7441 51.2588 60.2539 51.7471 57.4219 51.7471C51.9531 51.7471 47.5342 49.9648 44.165 46.4004C40.7959 42.7871 39.1113 37.9775 39.1113 31.9717C39.1113 28.6514 39.5752 25.3066 40.5029 21.9375C41.4795 18.5195 43.1885 15.3701 45.6299 12.4893C48.1201 9.55957 51.4404 6.99609 55.5908 4.79883C59.7412 2.60156 64.9658 1.06348 71.2646 0.18457V12.123Z" fill="#004FBA"/>
</svg>
