<svg width="23" height="21" viewBox="0 0 23 21" fill="none" xmlns="http://www.w3.org/2000/svg">
<rect x="0.25" y="0.25" width="22.5" height="20.5" fill="white" stroke="black" stroke-width="0.5"/>
<path d="M6.00488 11.665V10.8379C6.00488 10.5599 6.05046 10.2705 6.1416 9.96973C6.2373 9.66439 6.37402 9.37272 6.55176 9.09473C6.72949 8.81217 6.94368 8.56836 7.19434 8.36328L7.91211 8.8623C7.70247 9.16309 7.54069 9.47298 7.42676 9.79199C7.31283 10.1064 7.25586 10.4482 7.25586 10.8174V11.665H6.00488ZM8.1582 11.665V10.8379C8.1582 10.5599 8.20378 10.2705 8.29492 9.96973C8.39062 9.66439 8.52734 9.37272 8.70508 9.09473C8.88281 8.81217 9.09701 8.56836 9.34766 8.36328L10.0654 8.8623C9.85579 9.16309 9.69401 9.47298 9.58008 9.79199C9.46615 10.1064 9.40918 10.4482 9.40918 10.8174V11.665H8.1582ZM16.0332 8.5V9.375C16.0332 9.64844 15.9854 9.93783 15.8896 10.2432C15.7985 10.5439 15.6641 10.8356 15.4863 11.1182C15.3086 11.3962 15.0944 11.64 14.8438 11.8496L14.1191 11.3506C14.3333 11.0498 14.4951 10.7422 14.6045 10.4277C14.7184 10.1087 14.7754 9.76465 14.7754 9.39551V8.5H16.0332ZM18.1318 8.5V9.375C18.1318 9.64844 18.084 9.93783 17.9883 10.2432C17.8971 10.5439 17.7627 10.8356 17.585 11.1182C17.4072 11.3962 17.193 11.64 16.9424 11.8496L16.2178 11.3506C16.432 11.0498 16.5938 10.7422 16.7031 10.4277C16.8171 10.1087 16.874 9.76465 16.874 9.39551V8.5H18.1318Z" fill="black"/>
</svg>
