<svg width="33" height="16" viewBox="0 0 33 16" fill="none" xmlns="http://www.w3.org/2000/svg">
<mask id="path-1-inside-1_1078_312" fill="white">
<path fill-rule="evenodd" clip-rule="evenodd" d="M24.0479 15.5885L33 7.79423L24.0479 0V3.79402H0V11.794H24.0479V15.5885Z"/>
</mask>
<path fill-rule="evenodd" clip-rule="evenodd" d="M24.0479 15.5885L33 7.79423L24.0479 0V3.79402H0V11.794H24.0479V15.5885Z" fill="white"/>
<path d="M33 7.79423L33.3283 8.17133L33.7614 7.79423L33.3283 7.41713L33 7.79423ZM24.0479 15.5885H23.5479V16.6867L24.3762 15.9656L24.0479 15.5885ZM24.0479 0L24.3762 -0.377099L23.5479 -1.09828V0H24.0479ZM24.0479 3.79402V4.29402H24.5479V3.79402H24.0479ZM0 3.79402V3.29402H-0.5V3.79402H0ZM0 11.794H-0.5V12.294H0V11.794ZM24.0479 11.794H24.5479V11.294H24.0479V11.794ZM32.6717 7.41713L23.7195 15.2114L24.3762 15.9656L33.3283 8.17133L32.6717 7.41713ZM23.7195 0.377099L32.6717 8.17133L33.3283 7.41713L24.3762 -0.377099L23.7195 0.377099ZM24.5479 3.79402V0H23.5479V3.79402H24.5479ZM0 4.29402H24.0479V3.29402H0V4.29402ZM0.5 11.794V3.79402H-0.5V11.794H0.5ZM24.0479 11.294H0V12.294H24.0479V11.294ZM24.5479 15.5885V11.794H23.5479V15.5885H24.5479Z" fill="black" mask="url(#path-1-inside-1_1078_312)"/>
</svg>
