<svg width="84" height="84" viewBox="0 0 84 84" fill="none" xmlns="http://www.w3.org/2000/svg">
<path d="M79.5006 50.3335H75.334V8.66683H79.5006C80.6057 8.66683 81.6655 8.22784 82.4469 7.44644C83.2283 6.66504 83.6673 5.60523 83.6673 4.50016C83.6673 3.39509 83.2283 2.33529 82.4469 1.55388C81.6655 0.772483 80.6057 0.333496 79.5006 0.333496H4.50065C3.39558 0.333496 2.33577 0.772483 1.55437 1.55388C0.772971 2.33529 0.333984 3.39509 0.333984 4.50016C0.333984 5.60523 0.772971 6.66504 1.55437 7.44644C2.33577 8.22784 3.39558 8.66683 4.50065 8.66683H8.66732V50.3335H4.50065C3.39558 50.3335 2.33577 50.7725 1.55437 51.5539C0.772971 52.3353 0.333984 53.3951 0.333984 54.5002C0.333984 55.6052 0.772971 56.665 1.55437 57.4464C2.33577 58.2278 3.39558 58.6668 4.50065 58.6668H37.834V63.4585L18.8757 75.9585C18.0979 76.4399 17.5001 77.164 17.1747 78.0188C16.8492 78.8737 16.8141 79.8119 17.0748 80.6887C17.3355 81.5655 17.8774 82.3322 18.617 82.8704C19.3567 83.4086 20.2528 83.6885 21.1673 83.6668C21.9865 83.6762 22.788 83.4285 23.459 82.9585L37.834 73.4585V79.5002C37.834 80.6052 38.273 81.665 39.0544 82.4464C39.8358 83.2278 40.8956 83.6668 42.0006 83.6668C43.1057 83.6668 44.1655 83.2278 44.9469 82.4464C45.7283 81.665 46.1673 80.6052 46.1673 79.5002V73.4585L60.5423 82.9585C61.2133 83.4285 62.0148 83.6762 62.834 83.6668C63.7242 83.66 64.5888 83.3681 65.3011 82.8342C66.0134 82.3002 66.5359 81.5521 66.7922 80.6996C67.0484 79.847 67.0248 78.9348 66.7249 78.0966C66.425 77.2584 65.8646 76.5383 65.1256 76.0418L46.1673 63.5418V58.6668H79.5006C80.6057 58.6668 81.6655 58.2278 82.4469 57.4464C83.2283 56.665 83.6673 55.6052 83.6673 54.5002C83.6673 53.3951 83.2283 52.3353 82.4469 51.5539C81.6655 50.7725 80.6057 50.3335 79.5006 50.3335ZM67.0006 50.3335H17.0007V8.66683H67.0006V50.3335ZM33.6673 33.6668H37.834V37.8335C37.834 38.9386 38.273 39.9984 39.0544 40.7798C39.8358 41.5612 40.8956 42.0002 42.0006 42.0002C43.1057 42.0002 44.1655 41.5612 44.9469 40.7798C45.7283 39.9984 46.1673 38.9386 46.1673 37.8335V33.6668H50.334C51.439 33.6668 52.4989 33.2278 53.2803 32.4464C54.0617 31.665 54.5006 30.6052 54.5006 29.5002C54.5006 28.3951 54.0617 27.3353 53.2803 26.5539C52.4989 25.7725 51.439 25.3335 50.334 25.3335H46.1673V21.1668C46.1673 20.0618 45.7283 19.002 44.9469 18.2206C44.1655 17.4391 43.1057 17.0002 42.0006 17.0002C40.8956 17.0002 39.8358 17.4391 39.0544 18.2206C38.273 19.002 37.834 20.0618 37.834 21.1668V25.3335H33.6673C32.5622 25.3335 31.5024 25.7725 30.721 26.5539C29.9396 27.3353 29.5007 28.3951 29.5007 29.5002C29.5007 30.6052 29.9396 31.665 30.721 32.4464C31.5024 33.2278 32.5622 33.6668 33.6673 33.6668Z" fill="#2F2F2F"/>
</svg>
