<svg width="16" height="18" viewBox="0 0 14 15" fill="none" xmlns="http://www.w3.org/2000/svg">
<path d="M10.6017 14.1094C10.0529 14.1094 9.58292 13.899 9.1916 13.4783C8.80028 13.0576 8.60462 12.5547 8.60462 11.9696C8.60462 11.8966 8.61191 11.8045 8.6265 11.6934C8.64108 11.5823 8.66296 11.4762 8.69212 11.375L4.81296 8.95312C4.63796 9.16146 4.42725 9.32812 4.18083 9.45312C3.93441 9.57812 3.68063 9.64062 3.41949 9.64062C2.8627 9.64062 2.38942 9.43068 1.99967 9.0108C1.60992 8.59091 1.41504 8.08701 1.41504 7.49908C1.41504 6.91115 1.60992 6.40755 1.99967 5.98828C2.38942 5.56901 2.8627 5.35938 3.41949 5.35938C3.68063 5.35938 3.92955 5.41406 4.16624 5.52344C4.40294 5.63281 4.61851 5.79167 4.81296 6L8.69212 3.60938C8.66296 3.5253 8.64108 3.4293 8.6265 3.32136C8.61191 3.21342 8.60462 3.11471 8.60462 3.02522C8.60462 2.44156 8.80057 1.93989 9.19246 1.52019C9.58436 1.10048 10.0547 0.890625 10.6034 0.890625C11.1521 0.890625 11.6222 1.10057 12.0135 1.52045C12.4048 1.94034 12.6005 2.44425 12.6005 3.03217C12.6005 3.6201 12.4056 4.1237 12.0158 4.54297C11.6261 4.96224 11.1528 5.17188 10.596 5.17188C10.3314 5.17188 10.0789 5.13037 9.83827 5.04736C9.59768 4.96435 9.3955 4.81835 9.23171 4.60938L5.33796 6.875C5.36712 6.96875 5.38657 7.07825 5.39629 7.20348C5.40601 7.32871 5.41087 7.42881 5.41087 7.50377C5.41087 7.57872 5.40601 7.66194 5.39629 7.75342C5.38657 7.84489 5.36712 7.94271 5.33796 8.04688L9.23171 10.375C9.3955 10.1973 9.59125 10.0617 9.81898 9.96827C10.0467 9.87484 10.3057 9.82812 10.596 9.82812C11.1528 9.82812 11.6261 10.0381 12.0158 10.458C12.4056 10.8778 12.6005 11.3817 12.6005 11.9697C12.6005 12.5576 12.4045 13.0612 12.0126 13.4805C11.6207 13.8997 11.1504 14.1094 10.6017 14.1094ZM10.603 3.875C10.8263 3.875 11.0133 3.79409 11.164 3.63227C11.3147 3.47044 11.39 3.26992 11.39 3.0307C11.39 2.79148 11.3145 2.59115 11.1635 2.42969C11.0125 2.26823 10.8253 2.1875 10.602 2.1875C10.3788 2.1875 10.1918 2.26841 10.0411 2.43023C9.89039 2.59206 9.81504 2.79258 9.81504 3.0318C9.81504 3.27102 9.89056 3.47135 10.0416 3.63281C10.1926 3.79427 10.3798 3.875 10.603 3.875ZM3.41347 8.34375C3.63674 8.34375 3.82372 8.26284 3.97441 8.10102C4.12511 7.93919 4.20046 7.73867 4.20046 7.49945C4.20046 7.26023 4.12494 7.0599 3.9739 6.89844C3.82287 6.73698 3.63572 6.65625 3.41245 6.65625C3.18917 6.65625 3.00219 6.73716 2.8515 6.89898C2.7008 7.06081 2.62546 7.26133 2.62546 7.50055C2.62546 7.73977 2.70097 7.9401 2.85201 8.10156C3.00304 8.26302 3.1902 8.34375 3.41347 8.34375ZM10.603 12.8125C10.8263 12.8125 11.0133 12.7316 11.164 12.5698C11.3147 12.4079 11.39 12.2074 11.39 11.9682C11.39 11.729 11.3145 11.5286 11.1635 11.3672C11.0125 11.2057 10.8253 11.125 10.602 11.125C10.3788 11.125 10.1918 11.2059 10.0411 11.3677C9.89039 11.5296 9.81504 11.7301 9.81504 11.9693C9.81504 12.2085 9.89056 12.4089 10.0416 12.5703C10.1926 12.7318 10.3798 12.8125 10.603 12.8125Z" fill="white"/>
</svg>
