<svg width="756" height="839" viewBox="0 0 756 839" fill="none" xmlns="http://www.w3.org/2000/svg">
<path d="M756 641.664H0V642.083H756V641.664Z" fill="#EBEBEB"/>
<path d="M486.147 665.062H436.066V665.481H486.147V665.062Z" fill="#EBEBEB"/>
<path d="M628.656 660.509H615.512V660.928H628.656V660.509Z" fill="#EBEBEB"/>
<path d="M599.637 653.091H495.432V653.509H599.637V653.091Z" fill="#EBEBEB"/>
<path d="M340.423 662.996H294.604V663.415H340.423V662.996Z" fill="#EBEBEB"/>
<path d="M281.14 662.996H252.076V663.415H281.14V662.996Z" fill="#EBEBEB"/>
<path d="M150.137 655.91H79.3184V656.329H150.137V655.91Z" fill="#EBEBEB"/>
<path d="M358.366 566.828H66.4C61.6418 566.828 57.7695 562.531 57.7695 557.25V101.787C57.7695 96.5068 61.6418 92.2095 66.4 92.2095H358.366C363.122 92.2095 366.995 96.5068 366.995 101.787V557.25C366.995 562.531 363.122 566.828 358.366 566.828ZM66.4 92.6306C61.8489 92.6306 58.1475 96.7384 58.1475 101.789V557.252C58.1475 562.303 61.8489 566.411 66.4 566.411H358.366C362.915 566.411 366.617 562.303 366.617 557.252V101.787C366.617 96.7384 362.915 92.629 358.366 92.629L66.4 92.6306Z" fill="#EBEBEB"/>
<path d="M685.406 566.828H393.441C388.683 566.828 384.812 562.531 384.812 557.25V101.787C384.812 96.5068 388.685 92.2095 393.441 92.2095H685.406C690.165 92.2095 694.036 96.5068 694.036 101.787V557.25C694.038 562.531 690.165 566.828 685.406 566.828ZM393.441 92.6306C388.892 92.6306 385.191 96.7384 385.191 101.789V557.252C385.191 562.303 388.892 566.411 393.441 566.411H685.406C689.957 566.411 693.658 562.303 693.658 557.252V101.787C693.658 96.7384 689.957 92.629 685.406 92.629L393.441 92.6306Z" fill="#EBEBEB"/>
<path d="M86.6952 393.901L344.18 393.901L344.18 130.823L86.6952 130.823L86.6952 393.901Z" fill="#E6E6E6"/>
<path d="M80.5825 393.901L341.523 393.901L341.523 130.823L80.5825 130.823L80.5825 393.901Z" fill="#F5F5F5"/>
<path d="M330.551 380.741L330.551 143.982L91.555 143.982L91.555 380.741L330.551 380.741Z" fill="#FAFAFA"/>
<path d="M301.02 380.742L220.648 143.982H186.807L267.18 380.742H301.02Z" fill="white"/>
<path d="M257.589 380.742L177.215 143.982H153.914L234.287 380.742H257.589Z" fill="white"/>
<path d="M185.549 380.742L185.549 143.983H172.458L172.458 380.742H185.549Z" fill="#E6E6E6"/>
<path d="M258.418 380.742L258.418 143.982H245.327L245.327 380.742H258.418Z" fill="#E6E6E6"/>
<path d="M183.187 389.092L183.188 134.199H166.64L166.64 389.092H183.187Z" fill="#F5F5F5"/>
<path d="M256.057 389.091L256.057 134.198H239.509L239.509 389.091H256.057Z" fill="#F5F5F5"/>
<path d="M92.7207 380.742L92.7207 143.983H91.5565L91.5565 380.742H92.7207Z" fill="#E6E6E6"/>
<path d="M674.164 133.227H409.283V338.854H674.164V133.227Z" fill="#EBEBEB"/>
<path d="M674.163 338.855H676.396V133.228H674.163V338.855Z" fill="#E0E0E0"/>
<path d="M664.885 328.557V143.526L418.563 143.526V328.557L664.885 328.557Z" fill="white"/>
<path d="M420.406 328.556L420.406 143.525H418.565L418.565 328.556H420.406Z" fill="#E0E0E0"/>
<path d="M635.567 163.479H575.391V257.309H635.567V163.479Z" fill="#F5F5F5"/>
<path d="M498.033 180.872H437.857V274.702H498.033V180.872Z" fill="#F5F5F5"/>
<path d="M593.93 204.216H533.754V298.046H593.93V204.216Z" fill="#EBEBEB"/>
<path d="M511.415 208.335H487.912V234.418H511.415V208.335Z" fill="#F5F5F5"/>
<path d="M504.588 261.661H481.086V287.743H504.588V261.661Z" fill="#F0F0F0"/>
<path d="M618.557 629.608C618.557 622.949 623.421 617.551 629.42 617.551C635.42 617.551 640.284 622.949 640.284 629.608C640.284 636.266 635.42 641.664 629.42 641.664C623.421 641.664 618.557 636.268 618.557 629.608Z" fill="#E0E0E0"/>
<path d="M636.889 629.608C636.889 622.949 641.753 617.551 647.752 617.551C653.752 617.551 658.616 622.949 658.616 629.608C658.616 636.266 653.752 641.664 647.752 641.664C641.753 641.664 636.889 636.268 636.889 629.608Z" fill="#E0E0E0"/>
<path d="M336.684 629.608C336.684 622.949 341.548 617.551 347.547 617.551C353.547 617.551 358.411 622.949 358.411 629.608C358.411 636.266 353.547 641.664 347.547 641.664C341.548 641.664 336.684 636.268 336.684 629.608Z" fill="#E0E0E0"/>
<path d="M355.016 629.608C355.016 622.949 359.88 617.551 365.879 617.551C371.879 617.551 376.743 622.949 376.743 629.608C376.743 636.266 371.879 641.664 365.879 641.664C359.88 641.664 355.016 636.268 355.016 629.608Z" fill="#E0E0E0"/>
<path d="M637.367 631.271H663.078V374.195H637.367V631.271Z" fill="#EBEBEB"/>
<path d="M637.365 374.194H334.455V631.271H637.365V374.194Z" fill="#F5F5F5"/>
<path d="M627.518 384.744H344.303V620.723H627.518V384.744Z" fill="#EBEBEB"/>
<path d="M623.49 483.991H348.33V616.37H623.49V483.991Z" fill="#F5F5F5"/>
<path d="M623.49 389.711H348.33V480.638H623.49V389.711Z" fill="#F5F5F5"/>
<path d="M398.397 486.226H573.426C574.534 486.226 575.44 485.221 575.44 483.991C575.44 482.761 574.534 481.756 573.426 481.756H398.397C397.289 481.756 396.383 482.761 396.383 483.991C396.381 485.221 397.289 486.226 398.397 486.226Z" fill="#EBEBEB"/>
<path d="M398.397 391.946H573.426C574.534 391.946 575.44 390.941 575.44 389.711C575.44 388.481 574.534 387.476 573.426 387.476H398.397C397.289 387.476 396.383 388.482 396.383 389.711C396.381 390.941 397.289 391.946 398.397 391.946Z" fill="#EBEBEB"/>
<path d="M230.011 510.406H96.6289V641.666H230.011V510.406Z" fill="#F5F5F5"/>
<path d="M230.009 641.665H281.863V510.405H230.009V641.665Z" fill="#EBEBEB"/>
<path d="M232.903 487.378H90.0527V510.406H232.903V487.378Z" fill="#EBEBEB"/>
<path d="M232.905 510.406H288.439V487.379H232.905V510.406Z" fill="#E0E0E0"/>
<path d="M378 717.447C539.908 717.447 671.16 708.941 671.16 698.447C671.16 687.954 539.908 679.447 378 679.447C216.092 679.447 84.8398 687.954 84.8398 698.447C84.8398 708.941 216.092 717.447 378 717.447Z" fill="#F5F5F5"/>
<path d="M617.946 313.603H616.434V333.6H617.946V313.603Z" fill="#407BFF"/>
<path d="M617.946 256.311H616.434V299.605H617.946V256.311Z" fill="#407BFF"/>
<path d="M595.986 461.777H233.449C227.503 461.777 222.639 456.377 222.639 449.779V233.349C222.639 226.75 227.504 221.352 233.449 221.352H595.988C601.934 221.352 606.799 226.751 606.799 233.349V449.779C606.799 456.379 601.933 461.777 595.986 461.777Z" fill="#E0E0E0"/>
<path d="M601.513 455.644H238.975C233.028 455.644 228.164 450.244 228.164 443.646V227.216C228.164 220.616 233.03 215.218 238.975 215.218H601.513C607.46 215.218 612.324 220.618 612.324 227.216V443.646C612.324 450.244 607.458 455.644 601.513 455.644Z" fill="white"/>
<path d="M601.512 456.483H238.975C232.597 456.483 227.408 450.724 227.408 443.646V227.216C227.408 220.138 232.597 214.379 238.975 214.379H601.512C607.889 214.379 613.079 220.138 613.079 227.216V443.646C613.08 450.724 607.889 456.483 601.512 456.483ZM238.975 216.056C233.43 216.056 228.92 221.061 228.92 227.214V443.646C228.92 449.799 233.43 454.805 238.975 454.805H601.512C607.056 454.805 611.567 449.799 611.567 443.646V227.216C611.567 221.063 607.056 216.057 601.512 216.057H238.975V216.056Z" fill="#407BFF"/>
<path d="M397.349 319.64H257.636C254.53 319.64 252.004 316.836 252.004 313.39V292.019C252.004 288.572 254.53 285.768 257.636 285.768H397.349C400.455 285.768 402.982 288.572 402.982 292.019V313.39C402.983 316.836 400.457 319.64 397.349 319.64ZM257.638 287.446C255.367 287.446 253.517 289.498 253.517 292.019V313.39C253.517 315.91 255.367 317.962 257.638 317.962H397.351C399.622 317.962 401.471 315.91 401.471 313.39V292.019C401.471 289.498 399.622 287.446 397.351 287.446H257.638Z" fill="#E0E0E0"/>
<path d="M470.955 364.935H257.636C254.53 364.935 252.004 362.131 252.004 358.684V337.311C252.004 333.865 254.53 331.059 257.636 331.059H470.955C474.061 331.059 476.587 333.863 476.587 337.311V358.682C476.587 362.131 474.061 364.935 470.955 364.935ZM257.636 332.739C255.365 332.739 253.516 334.791 253.516 337.313V358.684C253.516 361.204 255.365 363.257 257.636 363.257H470.955C473.226 363.257 475.075 361.204 475.075 358.684V337.311C475.075 334.789 473.226 332.737 470.955 332.737L257.636 332.739Z" fill="#E0E0E0"/>
<path d="M259.248 354.736C258.831 354.736 258.492 354.36 258.492 353.897V342.099C258.492 341.636 258.831 341.26 259.248 341.26C259.665 341.26 260.004 341.636 260.004 342.099V353.897C260.004 354.36 259.665 354.736 259.248 354.736Z" fill="#E0E0E0"/>
<path d="M564.834 319.64H425.12C422.015 319.64 419.488 316.836 419.488 313.39V292.019C419.488 288.572 422.015 285.768 425.12 285.768H564.834C567.939 285.768 570.466 288.572 570.466 292.019V313.39C570.466 316.836 567.939 319.64 564.834 319.64ZM425.12 287.446C422.848 287.446 421 289.498 421 292.019V313.39C421 315.91 422.849 317.962 425.12 317.962H564.834C567.105 317.962 568.954 315.91 568.954 313.39V292.019C568.954 289.498 567.105 287.446 564.834 287.446H425.12Z" fill="#E0E0E0"/>
<path opacity="0.2" d="M348.528 256.311H258.976C255.557 256.311 252.76 253.207 252.76 249.413C252.76 245.619 255.557 242.515 258.976 242.515H348.528C351.947 242.515 354.746 245.619 354.746 249.413C354.746 253.207 351.948 256.311 348.528 256.311Z" fill="#407BFF"/>
<path opacity="0.2" d="M373.169 389.341H276.138C274.776 389.341 273.66 388.105 273.66 386.591C273.66 385.079 274.775 383.841 276.138 383.841H373.169C374.532 383.841 375.648 385.078 375.648 386.591C375.648 388.105 374.532 389.341 373.169 389.341Z" fill="#407BFF"/>
<path d="M257.76 392.142C260.521 392.142 262.76 389.657 262.76 386.593C262.76 383.528 260.521 381.043 257.76 381.043C254.998 381.043 252.76 383.528 252.76 386.593C252.76 389.657 254.998 392.142 257.76 392.142Z" fill="#407BFF"/>
<path d="M426.731 309.443C426.313 309.443 425.975 309.067 425.975 308.604V296.806C425.975 296.343 426.313 295.967 426.731 295.967C427.148 295.967 427.487 296.343 427.487 296.806V308.604C427.487 309.067 427.148 309.443 426.731 309.443Z" fill="#E0E0E0"/>
<path d="M259.248 309.443C258.831 309.443 258.492 309.067 258.492 308.604V296.806C258.492 296.343 258.831 295.967 259.248 295.967C259.665 295.967 260.004 296.343 260.004 296.806V308.604C260.004 309.067 259.665 309.443 259.248 309.443Z" fill="#E0E0E0"/>
<g opacity="0.6">
<path d="M265.27 307.705V297.398H271.534V298.615H266.497V301.807H270.856V303.023H266.497V307.706L265.27 307.705Z" fill="#263238"/>
<path d="M272.99 298.855V297.4H274.132V298.855H272.99ZM272.99 307.705V300.239H274.132V307.705H272.99Z" fill="#263238"/>
<path d="M275.854 307.705V300.239H276.88V301.37C277.142 300.842 277.384 300.493 277.606 300.323C277.827 300.155 278.072 300.07 278.336 300.07C278.722 300.07 279.112 300.206 279.508 300.478L279.115 301.652C278.835 301.469 278.558 301.379 278.279 301.379C278.029 301.379 277.804 301.461 277.607 301.627C277.409 301.793 277.267 302.025 277.184 302.32C277.057 302.77 276.994 303.261 276.994 303.797V307.706L275.854 307.705Z" fill="#263238"/>
<path d="M279.73 305.476L280.858 305.28C280.922 305.782 281.097 306.166 281.388 306.433C281.676 306.7 282.082 306.834 282.602 306.834C283.125 306.834 283.515 306.716 283.768 306.48C284.022 306.243 284.149 305.965 284.149 305.646C284.149 305.361 284.037 305.136 283.811 304.971C283.654 304.859 283.267 304.716 282.646 304.543C281.808 304.309 281.229 304.107 280.907 303.936C280.583 303.765 280.338 303.528 280.172 303.226C280.006 302.924 279.922 302.59 279.922 302.224C279.922 301.892 279.991 301.583 280.128 301.3C280.266 301.016 280.453 300.781 280.689 300.593C280.866 300.447 281.108 300.325 281.415 300.224C281.722 300.124 282.05 300.073 282.399 300.073C282.928 300.073 283.391 300.157 283.79 300.327C284.189 300.496 284.484 300.723 284.675 301.011C284.864 301.3 284.995 301.686 285.068 302.167L283.953 302.337C283.902 301.953 283.755 301.652 283.512 301.436C283.27 301.219 282.927 301.114 282.482 301.114C281.959 301.114 281.584 301.209 281.362 301.401C281.137 301.594 281.025 301.818 281.025 302.075C281.025 302.24 281.072 302.387 281.165 302.518C281.259 302.654 281.403 302.766 281.602 302.855C281.716 302.902 282.051 303.01 282.609 303.178C283.415 303.417 283.978 303.612 284.297 303.765C284.616 303.918 284.867 304.139 285.048 304.429C285.23 304.72 285.32 305.08 285.32 305.512C285.32 305.933 285.21 306.331 284.988 306.703C284.767 307.076 284.446 307.364 284.028 307.569C283.61 307.774 283.137 307.874 282.609 307.874C281.735 307.874 281.069 307.673 280.61 307.27C280.149 306.866 279.857 306.268 279.73 305.476Z" fill="#263238"/>
<path d="M289.163 306.574L289.327 307.691C289.005 307.765 288.72 307.804 288.466 307.804C288.053 307.804 287.732 307.73 287.502 307.585C287.276 307.441 287.114 307.25 287.022 307.013C286.929 306.777 286.883 306.278 286.883 305.52V301.224H286.045V300.239H286.883V298.39L288.017 297.63V300.239H289.163V301.224H288.017V305.59C288.017 305.951 288.036 306.184 288.076 306.287C288.116 306.389 288.181 306.471 288.272 306.532C288.364 306.592 288.493 306.624 288.662 306.624C288.789 306.622 288.957 306.607 289.163 306.574Z" fill="#263238"/>
<path d="M293.881 307.705V300.239H294.908V301.3C295.402 300.479 296.116 300.07 297.049 300.07C297.455 300.07 297.827 300.15 298.166 300.313C298.508 300.474 298.762 300.687 298.929 300.949C299.099 301.213 299.217 301.523 299.285 301.884C299.326 302.119 299.348 302.528 299.348 303.114V307.705H298.207V303.162C298.207 302.647 298.163 302.261 298.074 302.006C297.986 301.751 297.829 301.546 297.603 301.394C297.378 301.241 297.112 301.166 296.808 301.166C296.323 301.166 295.902 301.337 295.552 301.679C295.199 302.021 295.021 302.669 295.021 303.626V307.703H293.881V307.705Z" fill="#263238"/>
<path d="M305.487 306.785C305.065 307.183 304.658 307.465 304.267 307.629C303.877 307.794 303.458 307.874 303.01 307.874C302.271 307.874 301.704 307.673 301.306 307.273C300.909 306.872 300.709 306.361 300.709 305.736C300.709 305.371 300.785 305.038 300.934 304.735C301.084 304.433 301.281 304.189 301.524 304.006C301.766 303.823 302.04 303.686 302.343 303.59C302.567 303.525 302.906 303.461 303.358 303.401C304.277 303.278 304.956 303.134 305.392 302.964C305.396 302.79 305.398 302.681 305.398 302.634C305.398 302.117 305.29 301.754 305.074 301.543C304.784 301.258 304.35 301.113 303.777 301.113C303.242 301.113 302.845 301.219 302.59 301.427C302.333 301.635 302.144 302.004 302.023 302.535L300.907 302.365C301.008 301.837 301.176 301.409 301.408 301.083C301.64 300.758 301.976 300.506 302.416 300.33C302.855 300.155 303.364 300.066 303.942 300.066C304.516 300.066 304.982 300.14 305.343 300.291C305.702 300.441 305.965 300.63 306.134 300.857C306.302 301.085 306.42 301.372 306.488 301.718C306.526 301.932 306.545 302.322 306.545 302.884V304.572C306.545 305.748 306.569 306.491 306.618 306.804C306.666 307.116 306.763 307.414 306.907 307.7H305.717C305.597 307.443 305.522 307.136 305.487 306.785ZM305.393 303.959C304.98 304.147 304.357 304.305 303.53 304.438C303.062 304.513 302.731 304.597 302.535 304.691C302.34 304.785 302.191 304.923 302.085 305.102C301.981 305.282 301.928 305.483 301.928 305.703C301.928 306.04 302.043 306.322 302.274 306.547C302.504 306.772 302.841 306.884 303.284 306.884C303.724 306.884 304.114 306.778 304.456 306.565C304.799 306.352 305.05 306.06 305.21 305.689C305.331 305.404 305.393 304.983 305.393 304.424V303.959Z" fill="#263238"/>
<path d="M308.312 307.705V300.239H309.333V301.286C309.545 300.921 309.824 300.627 310.175 300.404C310.526 300.182 310.925 300.07 311.373 300.07C311.872 300.07 312.281 300.184 312.599 300.414C312.918 300.644 313.143 300.964 313.273 301.377C313.807 300.504 314.5 300.07 315.352 300.07C316.018 300.07 316.532 300.275 316.892 300.686C317.25 301.095 317.431 301.728 317.431 302.58V307.705H316.297V303.001C316.297 302.495 316.26 302.13 316.187 301.907C316.113 301.686 315.978 301.506 315.783 301.37C315.59 301.234 315.361 301.166 315.1 301.166C314.627 301.166 314.235 301.34 313.922 301.689C313.609 302.038 313.453 302.597 313.453 303.365V307.703H312.312V302.852C312.312 302.29 312.218 301.867 312.034 301.587C311.848 301.306 311.544 301.166 311.12 301.166C310.798 301.166 310.502 301.26 310.23 301.447C309.956 301.635 309.759 301.909 309.637 302.27C309.515 302.63 309.453 303.151 309.453 303.83V307.705H308.312Z" fill="#263238"/>
<path d="M323.725 305.302L324.903 305.463C324.717 306.226 324.372 306.82 323.87 307.242C323.367 307.663 322.726 307.874 321.946 307.874C320.961 307.874 320.181 307.539 319.604 306.866C319.028 306.193 318.74 305.25 318.74 304.035C318.74 302.778 319.031 301.803 319.614 301.11C320.198 300.415 320.952 300.07 321.882 300.07C322.782 300.07 323.517 300.41 324.087 301.088C324.657 301.768 324.941 302.724 324.941 303.958C324.941 304.032 324.938 304.146 324.935 304.295H319.918C319.959 305.116 320.169 305.743 320.544 306.179C320.921 306.616 321.389 306.834 321.952 306.834C322.369 306.834 322.727 306.711 323.022 306.468C323.317 306.225 323.551 305.835 323.725 305.302ZM319.982 303.256H323.737C323.686 302.629 323.542 302.157 323.306 301.843C322.944 301.357 322.472 301.112 321.894 301.112C321.371 301.112 320.93 301.307 320.574 301.696C320.216 302.083 320.018 302.604 319.982 303.256Z" fill="#263238"/>
</g>
<g opacity="0.6">
<path d="M265.23 352.999V342.693H271.945V343.909H266.458V347.066H271.596V348.276H266.458V351.784H272.16V353.001L265.23 352.999Z" fill="#263238"/>
<path d="M273.713 352.999V345.534H274.733V346.581C274.945 346.215 275.225 345.921 275.576 345.698C275.926 345.477 276.326 345.364 276.773 345.364C277.272 345.364 277.682 345.478 277.999 345.708C278.318 345.938 278.544 346.259 278.674 346.671C279.208 345.799 279.9 345.364 280.753 345.364C281.418 345.364 281.932 345.569 282.292 345.98C282.65 346.39 282.832 347.022 282.832 347.875V352.999H281.698V348.296C281.698 347.789 281.661 347.425 281.587 347.202C281.513 346.98 281.379 346.801 281.184 346.665C280.99 346.529 280.762 346.46 280.5 346.46C280.027 346.46 279.635 346.634 279.322 346.984C279.009 347.334 278.854 347.893 278.854 348.662V352.999H277.712V348.148C277.712 347.586 277.62 347.163 277.434 346.883C277.248 346.603 276.944 346.462 276.521 346.462C276.199 346.462 275.902 346.556 275.63 346.742C275.356 346.93 275.16 347.203 275.037 347.564C274.915 347.925 274.853 348.445 274.853 349.125V352.999H273.713Z" fill="#263238"/>
<path d="M288.909 352.078C288.487 352.475 288.08 352.757 287.689 352.922C287.298 353.086 286.88 353.167 286.432 353.167C285.693 353.167 285.126 352.965 284.728 352.566C284.33 352.165 284.131 351.653 284.131 351.031C284.131 350.665 284.206 350.331 284.356 350.029C284.506 349.727 284.702 349.483 284.946 349.301C285.188 349.118 285.461 348.98 285.765 348.886C285.989 348.821 286.328 348.757 286.78 348.696C287.699 348.574 288.378 348.43 288.814 348.26C288.818 348.086 288.82 347.977 288.82 347.93C288.82 347.413 288.712 347.05 288.496 346.841C288.206 346.555 287.772 346.411 287.199 346.411C286.663 346.411 286.267 346.517 286.012 346.723C285.755 346.933 285.566 347.3 285.445 347.831L284.329 347.661C284.43 347.131 284.598 346.705 284.829 346.379C285.062 346.054 285.398 345.802 285.838 345.626C286.276 345.45 286.786 345.362 287.363 345.362C287.938 345.362 288.405 345.436 288.765 345.587C289.123 345.737 289.387 345.926 289.556 346.153C289.724 346.381 289.842 346.668 289.91 347.013C289.948 347.228 289.967 347.618 289.967 348.18V349.868C289.967 351.044 289.991 351.789 290.04 352.099C290.088 352.412 290.185 352.71 290.327 352.996H289.137C289.019 352.735 288.944 352.428 288.909 352.078ZM288.815 349.252C288.402 349.44 287.781 349.599 286.954 349.73C286.484 349.806 286.154 349.89 285.959 349.984C285.764 350.078 285.614 350.215 285.508 350.395C285.404 350.574 285.351 350.776 285.351 350.995C285.351 351.333 285.466 351.615 285.697 351.838C285.927 352.063 286.264 352.175 286.707 352.175C287.147 352.175 287.537 352.068 287.879 351.856C288.222 351.641 288.473 351.351 288.634 350.98C288.755 350.695 288.817 350.274 288.817 349.715V349.252H288.815Z" fill="#263238"/>
<path d="M291.74 344.148V342.693H292.882V344.148H291.74ZM291.74 352.999V345.534H292.882V352.999H291.74Z" fill="#263238"/>
<path d="M294.592 352.999V342.693H295.732V352.999H294.592Z" fill="#263238"/>
</g>
<g opacity="0.6">
<path d="M432.639 307.705V297.398H433.868V306.488H438.44V307.705H432.639Z" fill="#263238"/>
<path d="M444.147 306.785C443.725 307.183 443.318 307.465 442.927 307.629C442.537 307.794 442.118 307.874 441.67 307.874C440.931 307.874 440.364 307.673 439.966 307.273C439.569 306.872 439.369 306.361 439.369 305.736C439.369 305.371 439.445 305.038 439.596 304.735C439.746 304.433 439.941 304.189 440.186 304.006C440.428 303.823 440.701 303.686 441.005 303.59C441.229 303.525 441.568 303.461 442.02 303.401C442.939 303.278 443.618 303.134 444.053 302.964C444.058 302.79 444.059 302.681 444.059 302.634C444.059 302.117 443.952 301.754 443.736 301.543C443.445 301.258 443.012 301.113 442.438 301.113C441.903 301.113 441.507 301.219 441.252 301.427C440.995 301.635 440.806 302.004 440.685 302.535L439.569 302.365C439.67 301.837 439.838 301.409 440.069 301.083C440.302 300.758 440.638 300.506 441.078 300.33C441.516 300.155 442.026 300.066 442.603 300.066C443.178 300.066 443.644 300.14 444.005 300.291C444.363 300.441 444.626 300.63 444.796 300.857C444.964 301.085 445.081 301.372 445.15 301.718C445.187 301.932 445.207 302.322 445.207 302.884V304.572C445.207 305.748 445.231 306.491 445.28 306.804C445.328 307.116 445.425 307.414 445.567 307.7H444.377C444.257 307.443 444.182 307.136 444.147 306.785ZM444.053 303.959C443.641 304.147 443.018 304.305 442.192 304.438C441.722 304.513 441.392 304.597 441.197 304.691C441.002 304.785 440.852 304.923 440.747 305.102C440.642 305.282 440.588 305.483 440.588 305.703C440.588 306.04 440.703 306.322 440.934 306.547C441.164 306.772 441.501 306.884 441.944 306.884C442.384 306.884 442.774 306.778 443.116 306.565C443.459 306.352 443.71 306.06 443.87 305.689C443.991 305.404 444.053 304.983 444.053 304.424V303.959Z" fill="#263238"/>
<path d="M446.516 305.476L447.644 305.28C447.707 305.782 447.882 306.166 448.173 306.433C448.462 306.7 448.867 306.834 449.387 306.834C449.91 306.834 450.3 306.716 450.553 306.48C450.807 306.243 450.934 305.965 450.934 305.646C450.934 305.361 450.822 305.136 450.597 304.971C450.441 304.859 450.052 304.716 449.431 304.543C448.593 304.309 448.014 304.107 447.692 303.936C447.368 303.765 447.123 303.528 446.957 303.226C446.791 302.924 446.708 302.59 446.708 302.224C446.708 301.892 446.776 301.583 446.913 301.3C447.051 301.016 447.238 300.781 447.474 300.593C447.651 300.447 447.893 300.325 448.198 300.224C448.505 300.124 448.834 300.073 449.183 300.073C449.712 300.073 450.175 300.157 450.574 300.327C450.973 300.496 451.268 300.723 451.458 301.011C451.647 301.3 451.779 301.686 451.851 302.167L450.737 302.337C450.686 301.953 450.539 301.652 450.296 301.436C450.054 301.219 449.71 301.114 449.266 301.114C448.743 301.114 448.368 301.209 448.146 301.401C447.922 301.594 447.808 301.818 447.808 302.075C447.808 302.24 447.855 302.387 447.949 302.518C448.043 302.654 448.186 302.766 448.386 302.855C448.499 302.902 448.835 303.01 449.393 303.178C450.199 303.417 450.761 303.612 451.08 303.765C451.399 303.918 451.65 304.139 451.832 304.429C452.013 304.72 452.104 305.08 452.104 305.512C452.104 305.933 451.994 306.331 451.771 306.703C451.549 307.076 451.23 307.364 450.811 307.569C450.394 307.774 449.921 307.874 449.391 307.874C448.518 307.874 447.851 307.673 447.393 307.27C446.936 306.866 446.644 306.268 446.516 305.476Z" fill="#263238"/>
<path d="M455.95 306.574L456.115 307.691C455.793 307.765 455.507 307.804 455.253 307.804C454.84 307.804 454.519 307.73 454.29 307.585C454.063 307.441 453.901 307.25 453.809 307.013C453.717 306.777 453.67 306.278 453.67 305.52V301.224H452.832V300.239H453.67V298.39L454.804 297.63V300.239H455.95V301.224H454.804V305.59C454.804 305.951 454.823 306.184 454.863 306.287C454.903 306.389 454.968 306.471 455.059 306.532C455.151 306.592 455.28 306.624 455.449 306.624C455.576 306.622 455.743 306.607 455.95 306.574Z" fill="#263238"/>
<path d="M460.668 307.705V300.239H461.695V301.3C462.189 300.479 462.903 300.07 463.836 300.07C464.242 300.07 464.614 300.15 464.953 300.313C465.295 300.474 465.547 300.687 465.717 300.949C465.886 301.213 466.004 301.523 466.072 301.884C466.113 302.119 466.135 302.528 466.135 303.114V307.705H464.994V303.162C464.994 302.647 464.95 302.261 464.861 302.006C464.772 301.751 464.616 301.546 464.391 301.394C464.165 301.241 463.899 301.166 463.595 301.166C463.11 301.166 462.69 301.337 462.339 301.679C461.986 302.021 461.808 302.669 461.808 303.626V307.703H460.668V307.705Z" fill="#263238"/>
<path d="M472.274 306.785C471.852 307.183 471.445 307.465 471.054 307.629C470.664 307.794 470.245 307.874 469.797 307.874C469.058 307.874 468.491 307.673 468.093 307.273C467.696 306.872 467.496 306.361 467.496 305.736C467.496 305.371 467.572 305.038 467.721 304.735C467.871 304.433 468.066 304.189 468.311 304.006C468.553 303.823 468.827 303.686 469.131 303.59C469.354 303.525 469.693 303.461 470.145 303.401C471.064 303.278 471.743 303.134 472.179 302.964C472.183 302.79 472.185 302.681 472.185 302.634C472.185 302.117 472.077 301.754 471.861 301.543C471.571 301.258 471.138 301.113 470.564 301.113C470.029 301.113 469.633 301.219 469.377 301.427C469.12 301.635 468.931 302.004 468.81 302.535L467.694 302.365C467.795 301.837 467.963 301.409 468.195 301.083C468.427 300.758 468.763 300.506 469.203 300.33C469.642 300.155 470.151 300.066 470.729 300.066C471.303 300.066 471.771 300.14 472.13 300.291C472.489 300.441 472.752 300.63 472.921 300.857C473.089 301.085 473.207 301.372 473.275 301.718C473.313 301.932 473.332 302.322 473.332 302.884V304.572C473.332 305.748 473.357 306.491 473.405 306.804C473.453 307.116 473.55 307.414 473.694 307.7H472.504C472.384 307.443 472.307 307.136 472.274 306.785ZM472.179 303.959C471.766 304.147 471.143 304.305 470.316 304.438C469.846 304.513 469.516 304.597 469.321 304.691C469.126 304.785 468.976 304.923 468.87 305.102C468.766 305.282 468.712 305.483 468.712 305.703C468.712 306.04 468.827 306.322 469.058 306.547C469.288 306.772 469.625 306.884 470.068 306.884C470.508 306.884 470.898 306.778 471.24 306.565C471.583 306.352 471.834 306.06 471.994 305.689C472.115 305.404 472.177 304.983 472.177 304.424V303.959H472.179Z" fill="#263238"/>
<path d="M475.1 307.705V300.239H476.12V301.286C476.332 300.921 476.612 300.627 476.962 300.404C477.313 300.182 477.712 300.07 478.16 300.07C478.659 300.07 479.069 300.184 479.385 300.414C479.704 300.644 479.929 300.964 480.059 301.377C480.593 300.504 481.285 300.07 482.138 300.07C482.803 300.07 483.317 300.275 483.677 300.686C484.036 301.095 484.215 301.728 484.215 302.58V307.705H483.081V303.001C483.081 302.495 483.045 302.13 482.971 301.907C482.897 301.686 482.762 301.506 482.567 301.37C482.374 301.234 482.146 301.166 481.884 301.166C481.411 301.166 481.019 301.34 480.706 301.689C480.393 302.038 480.237 302.597 480.237 303.365V307.703H479.096V302.852C479.096 302.29 479.004 301.867 478.818 301.587C478.632 301.306 478.328 301.166 477.904 301.166C477.582 301.166 477.286 301.26 477.014 301.447C476.74 301.635 476.545 301.909 476.421 302.27C476.299 302.63 476.237 303.151 476.237 303.83V307.705H475.1Z" fill="#263238"/>
<path d="M490.51 305.302L491.688 305.463C491.502 306.226 491.158 306.82 490.656 307.242C490.152 307.663 489.511 307.874 488.731 307.874C487.747 307.874 486.966 307.539 486.389 306.866C485.813 306.193 485.525 305.25 485.525 304.035C485.525 302.778 485.816 301.803 486.399 301.11C486.983 300.415 487.737 300.07 488.667 300.07C489.567 300.07 490.302 300.41 490.872 301.088C491.442 301.768 491.726 302.724 491.726 303.958C491.726 304.032 491.723 304.146 491.72 304.295H486.703C486.744 305.116 486.954 305.743 487.329 306.179C487.706 306.616 488.174 306.834 488.737 306.834C489.154 306.834 489.513 306.711 489.807 306.468C490.104 306.225 490.338 305.835 490.51 305.302ZM486.768 303.256H490.524C490.473 302.629 490.329 302.157 490.093 301.843C489.73 301.357 489.259 301.112 488.679 301.112C488.156 301.112 487.715 301.307 487.359 301.696C487.003 302.083 486.805 302.604 486.768 303.256Z" fill="#263238"/>
</g>
<path d="M452.142 409.289H503.856C508.396 409.289 512.111 413.412 512.111 418.451V428.823C512.111 433.862 508.396 437.985 503.856 437.985H452.142C447.602 437.985 443.887 433.862 443.887 428.823V418.451C443.887 413.412 447.602 409.289 452.142 409.289Z" fill="#407BFF"/>
<path opacity="0.2" d="M534.697 409.289H586.41C590.951 409.289 594.666 413.412 594.666 418.451V428.823C594.666 433.862 590.951 437.985 586.41 437.985H534.697C530.156 437.985 526.441 433.862 526.441 428.823V418.451C526.441 413.412 530.156 409.289 534.697 409.289Z" fill="#407BFF"/>
<path d="M206.849 146.281C195.681 144.42 193.147 155.683 181.4 155.24C183.248 162.071 189.376 164.966 189.376 164.966C189.376 164.966 180.047 172.49 182.128 183.726C189.438 174.545 199.256 183.259 209.933 182.895C232.12 182.138 240.129 170.731 232.447 160.947C239.588 150.924 220.076 145.55 220.517 138.079C218.284 139.234 218.367 144.001 218.367 144.001C218.367 144.001 210.313 144.759 203.367 138.499C203.081 143.101 206.849 146.281 206.849 146.281Z" fill="#263238"/>
<path d="M228.252 160.487C233.232 161.538 236.458 157.395 236.488 153.968C240.03 162.254 234.568 166.765 228.252 160.487Z" fill="#263238"/>
<path d="M238.738 665.812L228.216 672.539L212.723 646.595L223.245 639.868L238.738 665.812Z" fill="#FF8B7B"/>
<path d="M226.957 671.551L238.778 663.993C239.208 663.718 239.706 663.84 239.975 664.285L245.97 674.212C246.592 675.242 246.214 676.835 245.213 677.449C241.056 680.003 238.95 680.993 233.752 684.315C230.554 686.359 219.004 693.217 210.473 692.495C205.503 692.074 205.391 687.038 207.538 686.486C217.168 684.013 223.901 677.887 225.519 673.42C225.812 672.616 226.328 671.953 226.957 671.551Z" fill="#263238"/>
<path opacity="0.2" d="M223.25 639.875L212.725 646.604L220.716 659.974L231.242 653.244L223.25 639.875Z" fill="black"/>
<path d="M164.798 338.85C164.798 338.85 139.331 449.994 136.675 488.395C133.766 530.448 214.296 658.511 214.296 658.511L233.999 647.075C233.999 647.075 196.713 574.029 171.833 491.432C183.914 448.217 207.967 342.506 207.967 342.506L164.798 338.85Z" fill="#407BFF"/>
<g opacity="0.3">
<path d="M164.798 338.85C164.798 338.85 139.331 449.994 136.675 488.395C133.766 530.448 214.296 658.511 214.296 658.511L233.999 647.075C233.999 647.075 196.713 574.029 171.833 491.432C183.914 448.217 207.967 342.506 207.967 342.506L164.798 338.85Z" fill="white"/>
</g>
<path opacity="0.4" d="M187.361 382.542C177.372 401.958 173.999 448.38 176.565 473.733C183.552 446.732 192.361 409.684 198.881 381.844C194.485 378.089 190.182 377.052 187.361 382.542Z" fill="#407BFF"/>
<path d="M234.685 647.006L213.594 659.269L207.498 651.418L232.491 639.073L234.685 647.006Z" fill="#407BFF"/>
<path d="M224.292 675.952C225.264 675.331 226.223 674.423 226.877 673.745C226.959 673.662 226.988 673.532 226.952 673.417C226.914 673.299 226.818 673.219 226.708 673.208C226.236 673.167 222.077 672.829 221.085 674.207C220.854 674.526 220.796 674.915 220.917 675.336C221.115 676.029 221.478 676.455 221.995 676.605C222.653 676.793 223.477 676.474 224.292 675.952ZM225.997 673.786C224.333 675.402 222.913 676.224 222.139 676.001C221.818 675.908 221.595 675.63 221.457 675.148C221.393 674.925 221.416 674.751 221.528 674.596C222.062 673.855 224.325 673.71 225.997 673.786Z" fill="#407BFF"/>
<path d="M226.825 673.789C226.863 673.765 226.896 673.73 226.922 673.686C226.975 673.596 226.981 673.482 226.938 673.384C226.875 673.237 225.357 669.755 223.701 669.307C223.255 669.186 222.839 669.285 222.463 669.595C222.012 669.97 221.849 670.461 222.005 670.981C222.428 672.399 225.271 673.814 226.68 673.831C226.733 673.831 226.783 673.816 226.825 673.789ZM222.915 670.013C223.119 669.882 223.332 669.85 223.567 669.914C224.554 670.179 225.646 672.034 226.196 673.151C224.834 672.886 222.821 671.716 222.545 670.787C222.492 670.611 222.473 670.371 222.806 670.095C222.841 670.064 222.879 670.037 222.915 670.013Z" fill="#407BFF"/>
<path d="M182.806 243.488L171.862 264.374C170.074 267.847 168.306 271.311 166.652 274.719C165.833 276.417 165.077 278.123 164.363 279.729C163.667 281.296 163.04 282.973 162.771 283.805L162.184 277.596C162.332 278.362 162.42 279.149 162.553 279.88C162.704 280.573 162.777 281.355 162.931 281.998C163.046 282.689 163.182 283.362 163.317 284.02L163.513 284.995C163.545 285.171 163.565 285.319 163.578 285.476C163.569 285.543 163.596 285.649 163.56 285.71C163.497 285.778 163.627 285.874 163.247 285.879C165.904 286.334 167.727 289.092 167.317 292.042C166.908 294.991 164.422 297.014 161.764 296.559C161.13 296.512 161.009 296.534 160.699 296.519L159.945 296.481C159.478 296.43 159.016 296.366 158.587 296.281C157.713 296.093 156.903 295.84 156.113 295.512C154.547 294.86 153.167 293.952 151.903 292.938C150.651 291.895 149.556 290.77 148.581 289.542C148.106 288.933 147.667 288.314 147.211 287.683C146.79 287.064 146.423 286.406 146.031 285.757C145.148 284.297 144.887 282.575 145.179 280.978L145.443 279.548C146.033 276.366 146.741 274.183 147.457 271.945C148.169 269.748 148.966 267.71 149.749 265.693C151.325 261.681 153.002 257.841 154.75 254.071C156.475 250.29 158.306 246.604 160.164 242.947C162.047 239.286 163.94 235.725 166.032 232.116L166.038 232.106C168.975 227.038 175.057 225.572 179.624 228.83C184.061 231.993 185.424 238.475 182.806 243.488Z" fill="#FF8B7B"/>
<path d="M176.675 223.243C188.987 222.214 195.031 231.874 189.169 247.775C185.947 256.549 180.881 266.961 177.171 274.224C176.196 276.15 175.298 277.863 174.567 279.244L149.895 257.914C154.688 245.313 168.439 223.932 176.675 223.243Z" fill="#263238"/>
<path opacity="0.3" d="M173.987 238.799C182.153 232.931 170.802 260.489 166.12 271.943L158.871 265.672C160.825 257.51 167.716 243.306 173.987 238.799Z" fill="black"/>
<path d="M208.49 684.854L196.41 683.83L196.755 652.633L208.834 653.656L208.49 684.854Z" fill="#FF8B7B"/>
<path d="M195.872 682.224L209.443 683.374C209.938 683.416 210.286 683.829 210.283 684.366L210.205 696.345C210.198 697.588 209.081 698.669 207.943 698.551C203.225 698.061 200.987 697.561 195.019 697.056C191.348 696.746 175.711 695.846 170.641 695.417C165.682 694.997 166.058 689.433 168.238 689.111C178.013 687.666 190.147 685.56 193.741 682.874C194.388 682.389 195.149 682.162 195.872 682.224Z" fill="#263238"/>
<path opacity="0.2" d="M208.836 653.666L196.752 652.641L196.58 668.723L208.664 669.747L208.836 653.666Z" fill="black"/>
<path d="M188.383 340.849C188.383 340.849 180.964 442.579 180.556 481.15C180.108 523.388 191.637 664.419 191.637 664.419L213.762 666.293C213.762 666.293 212.108 529.513 216.008 487.986C220.24 442.915 229.404 344.324 229.404 344.324L188.383 340.849Z" fill="#407BFF"/>
<path opacity="0.3" d="M188.383 340.849C188.383 340.849 180.964 442.579 180.556 481.15C180.108 523.388 191.637 664.419 191.637 664.419L213.762 666.293C213.762 666.293 212.108 529.513 216.008 487.986C220.24 442.915 229.404 344.324 229.404 344.324L188.383 340.849Z" fill="white"/>
<path d="M214.653 666.369L190.746 664.344L189.994 654.908L216.291 658.6L214.653 666.369Z" fill="#407BFF"/>
<path d="M191.446 684.198C192.562 684.292 193.812 684.14 194.694 683.991C194.804 683.973 194.893 683.884 194.92 683.765C194.949 683.644 194.911 683.518 194.825 683.439C194.458 683.109 191.198 680.222 189.683 680.741C189.332 680.86 189.086 681.147 188.972 681.57C188.785 682.268 188.869 682.848 189.22 683.296C189.669 683.865 190.51 684.119 191.446 684.198ZM193.948 683.473C191.757 683.768 190.171 683.558 189.645 682.887C189.427 682.61 189.385 682.239 189.513 681.753C189.574 681.53 189.681 681.397 189.852 681.34C190.669 681.063 192.608 682.363 193.948 683.473Z" fill="#407BFF"/>
<path d="M194.63 683.993C194.674 683.996 194.719 683.99 194.762 683.969C194.851 683.927 194.914 683.837 194.928 683.731C194.949 683.568 195.459 679.734 194.32 678.326C194.013 677.947 193.62 677.768 193.154 677.789C192.593 677.816 192.209 678.122 192.075 678.648C191.706 680.088 193.334 683.04 194.489 683.938C194.532 683.971 194.58 683.99 194.63 683.993ZM193.315 678.417C193.549 678.437 193.742 678.544 193.903 678.742C194.583 679.581 194.545 681.8 194.433 683.07C193.445 681.996 192.376 679.766 192.618 678.823C192.663 678.643 192.77 678.434 193.183 678.414C193.228 678.412 193.272 678.414 193.315 678.417Z" fill="#407BFF"/>
<path d="M164.799 338.85L229.405 344.324C230.256 337.957 230.205 316.999 232.834 290.54C234.602 272.774 237.585 252.529 242.86 232.569C243.243 231.146 243.624 229.741 244.023 228.32C244.023 228.32 240.793 227.3 236.148 226.144C232.293 225.181 227.445 224.115 222.67 223.456C214.453 222.323 202.527 221.021 195.215 221.13C190.968 221.207 186.798 221.637 183.463 222.063C179.2 222.649 176.674 223.243 176.674 223.243C176.674 223.243 162.574 261.618 164.799 338.85Z" fill="#407BFF"/>
<path d="M167.662 284.376C167.662 284.376 170.166 280.369 172.452 279.154C174.082 278.288 175.325 277.419 176.06 276.86C176.569 276.472 177.256 276.873 177.294 277.561C177.349 278.615 176.848 280.3 174.353 282.604C173.952 285.904 169.316 289.17 169.316 289.17L167.662 284.376Z" fill="#FF8B7B"/>
<path opacity="0.3" d="M176.975 293.215L190.399 294.353L183.126 264.181L169.701 263.043L176.975 293.215Z" fill="black"/>
<path d="M176.058 293.138L189.483 294.276L182.21 264.103L168.785 262.966L176.058 293.138Z" fill="white"/>
<path opacity="0.3" d="M232.833 290.547C234.601 272.78 237.584 252.535 242.861 232.575C238.568 231.793 231.158 231.637 229.458 239.279C227.626 247.49 228.081 267.208 232.833 290.547Z" fill="black"/>
<path d="M248.564 238.803C249.242 241.142 249.78 243.174 250.299 245.362C250.831 247.512 251.286 249.676 251.732 251.846C252.591 256.195 253.376 260.571 253.921 265.045C254.482 269.52 254.921 274.039 255.06 278.701C255.213 283.37 255.104 288.146 254.496 293.162L254.431 293.702C254.177 295.801 253.297 297.642 252.035 299.019C250.996 300.152 249.993 300.907 249.068 301.508C248.182 302.053 247.314 302.496 246.56 302.8C245.011 303.446 243.664 303.792 242.394 304.042C239.869 304.528 237.636 304.666 235.455 304.728C231.125 304.83 227.08 304.423 223.087 303.936C219.103 303.396 215.201 302.691 211.339 301.825C207.465 300.942 203.69 299.981 199.833 298.719C197.229 297.867 195.74 294.833 196.509 291.943C197.135 289.591 199.063 288.059 201.163 288.03H201.257L212.53 287.891C216.28 287.827 220.006 287.743 223.662 287.535C227.307 287.367 230.921 287.028 234.219 286.512C235.849 286.245 237.424 285.896 238.632 285.461C239.225 285.245 239.725 285.012 239.946 284.855C240.084 284.777 240.066 284.728 240.01 284.751C239.895 284.793 239.668 284.916 239.305 285.298L236.842 291.156C236.94 287.713 236.698 283.98 236.351 280.182C235.959 276.373 235.357 272.475 234.713 268.569C234.027 264.662 233.26 260.722 232.413 256.799C232.01 254.833 231.548 252.874 231.111 250.92L229.773 245.213L229.696 244.885C228.329 239.056 231.48 233.103 236.732 231.586C241.798 230.124 246.974 233.349 248.564 238.803Z" fill="#FF8B7B"/>
<path d="M244.023 228.32C232.2 224.207 225.13 232.601 227.099 249.704C228.174 259.138 231.186 270.476 233.422 278.494L259.477 269.599C257.203 256.103 251.93 231.074 244.023 228.32Z" fill="#263238"/>
<path d="M196.525 221.131C204.638 219.71 206.377 214.346 206.211 208.275C206.186 206.8 206.052 205.259 205.852 203.732L216.426 195.352L224.191 189.208C221.548 198.861 218.148 216.561 223.726 223.617C223.726 223.617 212.903 232.476 199.733 238.183C197.653 239.084 195.244 237.885 194.586 235.515C192.066 226.429 196.525 221.131 196.525 221.131Z" fill="#FF8B7B"/>
<path opacity="0.2" d="M205.852 203.732C206.053 205.259 206.187 206.798 206.21 208.275C209.993 207.758 215.859 204.545 216.69 199.917C216.974 198.339 216.454 196.465 216.423 195.353L205.852 203.732Z" fill="black"/>
<path d="M224.817 169.342C225.385 182.719 226.326 190.5 220.996 198.217C212.979 209.825 197.731 205.966 193.603 193.153C189.888 181.618 189.581 161.68 200.685 154.641C211.624 147.706 224.247 155.965 224.817 169.342Z" fill="#FF8B7B"/>
<path d="M219.772 161.226C216.366 168.06 218.957 173.066 218.957 173.066L219.588 169.849C219.588 169.849 223.883 174.911 222.665 180.719C230.142 176.276 230.988 158.992 219.772 161.226Z" fill="#263238"/>
<path d="M226.051 163.272C212.439 166.59 204.781 165.073 202.363 164.489C208.06 164.063 209.557 161.193 209.557 161.193C209.557 161.193 195.976 164.893 193.184 163.71C195.925 154.505 202.293 150.271 215.162 150.83C228.029 151.391 226.051 163.272 226.051 163.272Z" fill="#263238"/>
<path d="M230.611 181.801C229.231 185.108 226.818 187.521 224.542 188.664C221.119 190.381 219.423 186.914 220.387 182.815C221.255 179.125 224.083 173.785 227.512 173.804C230.89 173.822 232.188 178.019 230.611 181.801Z" fill="#FF8B7B"/>
<path d="M207.171 175.775C207.277 176.856 206.85 177.809 206.218 177.905C205.586 178 204.989 177.202 204.883 176.121C204.777 175.04 205.204 174.087 205.836 173.992C206.468 173.896 207.065 174.695 207.171 175.775Z" fill="#263238"/>
<path d="M196.245 177.428C196.351 178.509 195.925 179.462 195.293 179.557C194.661 179.653 194.063 178.854 193.958 177.774C193.852 176.693 194.278 175.74 194.91 175.644C195.542 175.55 196.139 176.347 196.245 177.428Z" fill="#263238"/>
<path d="M199.772 177.44C199.772 177.44 198.183 184.004 196.059 187.377C197.943 188.902 200.772 187.647 200.772 187.647L199.772 177.44Z" fill="#FF5652"/>
<path d="M205.003 189.959C208.72 188.887 210.179 185.707 210.244 185.56C210.314 185.404 210.256 185.211 210.114 185.132C209.972 185.051 209.801 185.117 209.73 185.273C209.713 185.308 208.058 188.931 203.806 189.57C203.647 189.594 203.54 189.755 203.564 189.929C203.587 190.104 203.732 190.226 203.889 190.201C204.281 190.144 204.653 190.062 205.003 189.959Z" fill="#263238"/>
<path d="M210.166 171.322C210.256 171.295 210.343 171.245 210.415 171.167C210.642 170.924 210.65 170.521 210.429 170.266C208.25 167.743 205.643 168.311 205.534 168.338C205.237 168.374 205.028 168.746 205.094 169.092C205.161 169.436 205.466 169.657 205.775 169.587C205.884 169.563 207.892 169.162 209.603 171.146C209.754 171.318 209.971 171.377 210.166 171.322Z" fill="#263238"/>
<path d="M191.138 173.941C191.315 173.889 191.466 173.745 191.531 173.54C192.393 170.812 194.444 170.176 194.464 170.171C194.77 170.08 194.949 169.731 194.866 169.392C194.783 169.053 194.47 168.85 194.165 168.939L194.162 168.941C194.053 168.973 191.507 169.762 190.448 173.111C190.344 173.441 190.501 173.807 190.801 173.926C190.914 173.968 191.03 173.972 191.138 173.941Z" fill="#263238"/>
<path d="M203.815 289.238L191.412 280.736L192.552 297.657C192.552 297.657 202.938 301.788 204.368 295.677L203.815 289.238Z" fill="#FF8B7B"/>
<path d="M195.349 283.434C195.349 283.434 192.777 279.437 190.471 278.229C188.828 277.368 187.266 275.823 186.522 275.267C186.005 274.881 185.326 275.286 185.3 275.974C185.261 277.028 186.094 279.392 188.628 281.686C189.085 284.985 193.775 288.235 193.775 288.235L195.349 283.434Z" fill="#FF8B7B"/>
<path d="M180.685 282.162L181.782 292.752C181.877 293.665 182.458 294.427 183.253 294.682L192.55 297.657L191.401 280.884L182.947 279.682C181.644 279.494 180.536 280.711 180.685 282.162Z" fill="#FF8B7B"/>
<path d="M161.729 287.057L172.475 281.024L172.209 295.933C172.209 295.933 161.058 299.623 160.393 293.336L161.729 287.057Z" fill="#FF8B7B"/>
<path d="M177.182 281.587L177.183 293.359C177.183 294.024 176.783 294.601 176.207 294.769L172.209 295.933L172.475 281.024L175.522 280.154C176.361 279.914 177.182 280.622 177.182 281.587Z" fill="#FF8B7B"/>
<path d="M503.74 488.142C513.887 499.354 512.417 510.734 505.188 518.792C497.961 526.848 487.711 528.53 477.564 517.317C467.417 506.105 461.216 486.247 468.444 478.191C475.673 470.133 493.593 476.929 503.74 488.142Z" fill="#407BFF"/>
<path d="M539.65 561.697C527.108 564.152 519.551 557.568 516.923 548.134C514.295 538.7 517.59 529.99 530.132 527.535C542.674 525.08 559.713 529.808 562.341 539.242C564.97 548.676 552.192 559.242 539.65 561.697Z" fill="#407BFF"/>
<path d="M473.447 583.722C482.485 587.038 488.715 583.07 491.574 576.405C494.433 569.739 492.841 562.903 483.802 559.588C474.764 556.272 461.701 557.735 458.841 564.398C455.981 571.063 464.408 580.407 473.447 583.722Z" fill="#407BFF"/>
<path d="M546.669 487.499C537.984 500.69 527.262 501.779 518.674 496.08C510.085 490.384 506.879 480.057 515.566 466.866C524.25 453.676 541.537 442.614 550.127 448.313C558.716 454.01 555.355 474.308 546.669 487.499Z" fill="#407BFF"/>
<path d="M496.072 660.469C495.273 660.469 494.605 659.775 494.563 658.879C489.912 559.447 523.853 482.204 524.196 481.435C524.568 480.604 525.474 480.262 526.222 480.678C526.971 481.089 527.276 482.096 526.906 482.927C526.566 483.687 492.974 560.189 497.582 658.706C497.626 659.632 496.985 660.419 496.15 660.469C496.125 660.469 496.097 660.469 496.072 660.469Z" fill="#263238"/>
<path d="M508.623 536.364C508.575 536.364 508.528 536.361 508.478 536.356C507.648 536.268 507.037 535.449 507.115 534.528C507.134 534.31 508.801 512.649 495.42 505.542C494.667 505.143 494.348 504.14 494.709 503.304C495.069 502.467 495.975 502.118 496.725 502.514C512.02 510.639 510.209 533.86 510.126 534.845C510.052 535.713 509.393 536.364 508.623 536.364Z" fill="#263238"/>
<path d="M497.665 600.18C496.886 600.18 496.226 599.515 496.159 598.641C496.144 598.433 494.413 577.819 478.118 572.085C477.323 571.805 476.881 570.864 477.134 569.979C477.386 569.093 478.237 568.605 479.031 568.887C497.286 575.309 499.156 598.14 499.171 598.368C499.238 599.292 498.619 600.099 497.788 600.175C497.748 600.178 497.706 600.18 497.665 600.18Z" fill="#263238"/>
<path d="M500.934 574.518C500.813 574.518 500.692 574.503 500.571 574.47C499.76 574.248 499.264 573.339 499.464 572.439C506.542 540.573 528.865 541.333 529.095 541.336C529.929 541.378 530.575 542.162 530.537 543.088C530.499 544.016 529.79 544.742 528.959 544.689C528.148 544.658 508.866 544.133 502.4 573.243C502.23 574.007 501.613 574.518 500.934 574.518Z" fill="#263238"/>
<path d="M558.912 645.857C558.912 666.455 550.422 684.882 537.076 697.13C536.122 698.006 535.006 698.441 533.883 698.441H462.135C461.012 698.441 459.896 698.006 458.942 697.13C445.595 684.882 437.105 666.455 437.105 645.857C437.105 639.326 437.954 633.012 439.552 627.057C439.556 627.038 439.562 627.018 439.567 627C440.471 623.622 442.736 621.462 445.202 621.462H550.815C553.281 621.462 555.548 623.622 556.451 627C556.455 627.018 556.461 627.038 556.466 627.057C558.064 633.012 558.912 639.326 558.912 645.857Z" fill="#407BFF"/>
<path d="M558.732 650.749C524.026 663.261 489.782 678.014 456.547 694.813C456.961 695.236 457.395 695.635 457.818 696.044C490.608 679.503 524.368 664.943 558.59 652.576C558.646 651.97 558.692 651.361 558.732 650.749Z" fill="white"/>
<path d="M536.985 621.462H534.363C506.42 643.394 479.245 667.057 452.764 690.569C453.104 690.982 453.441 691.396 453.79 691.801C480.778 667.841 508.493 643.726 536.985 621.462Z" fill="white"/>
<path d="M519.981 698.441C532.53 687.027 544.842 675.224 556.838 663.124C557.074 662.154 557.298 661.179 557.494 660.192C544.539 673.324 531.208 686.114 517.602 698.441H519.981Z" fill="white"/>
<path d="M520.057 621.462C491.529 631.844 464.769 648.253 439.818 665.57C439.974 666.121 440.128 666.673 440.296 667.218C466.579 648.958 494.864 631.691 525.069 621.462H520.057Z" fill="white"/>
<path d="M438.021 634.457C446.074 629.738 454.31 625.411 462.693 621.464H458.913C451.955 624.838 445.095 628.458 438.366 632.364C438.236 633.055 438.132 633.757 438.021 634.457Z" fill="white"/>
<path d="M475.585 621.462H473.356L438.064 657.674C438.17 658.32 438.293 658.959 438.415 659.6L475.585 621.462Z" fill="white"/>
</svg>
