<svg width="29" height="92" viewBox="0 0 29 92" fill="none" xmlns="http://www.w3.org/2000/svg">
<path d="M12 91.48C5.37259 91.48 0 86.1074 0 79.48V12C0 5.37259 5.37258 7.62939e-06 12 7.62939e-06H28.1V91.48H12Z" fill="white"/>
<path d="M17.0518 68.6152L8.33594 65.8101V63.7812L19 67.6045V68.9741L17.0518 68.6152ZM8.33594 71.208L17.0518 68.4248L19 68.0439V69.4209L8.33594 73.2295V71.208ZM17.4106 58.6323H13.6313C13.3481 58.6323 13.104 58.6836 12.8989 58.7861C12.6938 58.8887 12.5352 59.0449 12.4229 59.2549C12.3105 59.46 12.2544 59.7188 12.2544 60.0312C12.2544 60.3193 12.3032 60.5684 12.4009 60.7783C12.4985 60.9883 12.6304 61.1519 12.7964 61.269C12.9624 61.3862 13.1504 61.4448 13.3604 61.4448V63.2026C13.0479 63.2026 12.7451 63.127 12.4521 62.9756C12.1592 62.8242 11.8979 62.6045 11.6685 62.3164C11.439 62.0283 11.2583 61.6841 11.1265 61.2837C10.9946 60.8833 10.9287 60.4341 10.9287 59.936C10.9287 59.3403 11.0288 58.813 11.229 58.354C11.4292 57.8901 11.7319 57.5264 12.1372 57.2627C12.5376 56.9941 13.0405 56.8599 13.646 56.8599H17.1689C17.5303 56.8599 17.855 56.8354 18.1431 56.7866C18.4263 56.7329 18.6729 56.6572 18.8828 56.5596H19V58.3687C18.8096 58.4517 18.5679 58.5176 18.2749 58.5664C17.9771 58.6104 17.689 58.6323 17.4106 58.6323ZM14.1807 58.376L15.272 58.3613V59.6284C15.272 59.9556 15.3037 60.2437 15.3672 60.4927C15.4258 60.7417 15.5137 60.9492 15.6309 61.1152C15.748 61.2812 15.8896 61.4058 16.0557 61.4888C16.2217 61.5718 16.4097 61.6133 16.6196 61.6133C16.8296 61.6133 17.0225 61.5645 17.1982 61.4668C17.3691 61.3691 17.5034 61.2275 17.6011 61.042C17.6987 60.8516 17.7476 60.6221 17.7476 60.3535C17.7476 59.9922 17.6743 59.6772 17.5278 59.4087C17.3765 59.1353 17.1934 58.9204 16.9785 58.7642C16.7588 58.6079 16.5513 58.5249 16.356 58.5151L17.1396 57.9438C17.3398 58.0024 17.5547 58.1025 17.7842 58.2441C18.0137 58.3857 18.2334 58.5713 18.4434 58.8008C18.6484 59.0254 18.8169 59.2964 18.9487 59.6138C19.0806 59.9263 19.1465 60.2876 19.1465 60.6978C19.1465 61.2153 19.0439 61.6768 18.8389 62.082C18.6289 62.4873 18.3481 62.8047 17.9966 63.0342C17.6401 63.2637 17.2373 63.3784 16.7881 63.3784C16.3682 63.3784 15.9971 63.3003 15.6748 63.144C15.3477 62.9829 15.0742 62.7485 14.8545 62.4409C14.6348 62.1284 14.4688 61.7476 14.3564 61.2983C14.2393 60.8491 14.1807 60.3364 14.1807 59.7603V58.376ZM12.584 53.2417H19V55.0068H11.0752V53.3223L12.584 53.2417ZM11.0239 50.8174L12.6646 50.832C12.645 50.9395 12.6304 51.0566 12.6206 51.1836C12.6108 51.3057 12.606 51.4277 12.606 51.5498C12.606 51.8525 12.6499 52.1187 12.7378 52.3481C12.8208 52.5776 12.9429 52.7705 13.104 52.9268C13.2603 53.0781 13.4507 53.1953 13.6753 53.2783C13.8999 53.3613 14.1514 53.4102 14.4297 53.4248L14.459 53.8276C13.9609 53.8276 13.4995 53.7788 13.0747 53.6812C12.6499 53.5835 12.2764 53.437 11.9541 53.2417C11.6318 53.0415 11.3804 52.7925 11.1997 52.4946C11.019 52.1919 10.9287 51.8428 10.9287 51.4473C10.9287 51.3398 10.9385 51.2251 10.958 51.103C10.9775 50.9761 10.9995 50.8809 11.0239 50.8174ZM11.0752 47.8218H19V49.5942H11.0752V47.8218ZM8.99512 49.7114C8.72656 49.7114 8.50439 49.6235 8.32861 49.4478C8.14795 49.2671 8.05762 49.0181 8.05762 48.7007C8.05762 48.3882 8.14795 48.1416 8.32861 47.9609C8.50439 47.7803 8.72656 47.6899 8.99512 47.6899C9.25879 47.6899 9.47852 47.7803 9.6543 47.9609C9.83008 48.1416 9.91797 48.3882 9.91797 48.7007C9.91797 49.0181 9.83008 49.2671 9.6543 49.4478C9.47852 49.6235 9.25879 49.7114 8.99512 49.7114ZM17.4106 41.4204H13.6313C13.3481 41.4204 13.104 41.4717 12.8989 41.5742C12.6938 41.6768 12.5352 41.833 12.4229 42.043C12.3105 42.248 12.2544 42.5068 12.2544 42.8193C12.2544 43.1074 12.3032 43.3564 12.4009 43.5664C12.4985 43.7764 12.6304 43.9399 12.7964 44.0571C12.9624 44.1743 13.1504 44.2329 13.3604 44.2329V45.9907C13.0479 45.9907 12.7451 45.915 12.4521 45.7637C12.1592 45.6123 11.8979 45.3926 11.6685 45.1045C11.439 44.8164 11.2583 44.4722 11.1265 44.0718C10.9946 43.6714 10.9287 43.2222 10.9287 42.7241C10.9287 42.1284 11.0288 41.6011 11.229 41.1421C11.4292 40.6782 11.7319 40.3145 12.1372 40.0508C12.5376 39.7822 13.0405 39.6479 13.646 39.6479H17.1689C17.5303 39.6479 17.855 39.6235 18.1431 39.5747C18.4263 39.521 18.6729 39.4453 18.8828 39.3477H19V41.1567C18.8096 41.2397 18.5679 41.3057 18.2749 41.3545C17.9771 41.3984 17.689 41.4204 17.4106 41.4204ZM14.1807 41.1641L15.272 41.1494L15.272 42.4165C15.272 42.7437 15.3037 43.0317 15.3672 43.2808C15.4258 43.5298 15.5137 43.7373 15.6309 43.9033C15.748 44.0693 15.8896 44.1938 16.0557 44.2769C16.2217 44.3599 16.4097 44.4014 16.6196 44.4014C16.8296 44.4014 17.0225 44.3525 17.1982 44.2549C17.3691 44.1572 17.5034 44.0156 17.6011 43.8301C17.6987 43.6396 17.7476 43.4102 17.7476 43.1416C17.7476 42.7803 17.6743 42.4653 17.5278 42.1968C17.3765 41.9233 17.1934 41.7085 16.9785 41.5522C16.7588 41.396 16.5513 41.313 16.356 41.3032L17.1396 40.7319C17.3398 40.7905 17.5547 40.8906 17.7842 41.0322C18.0137 41.1738 18.2334 41.3594 18.4434 41.5889C18.6484 41.8135 18.8169 42.0845 18.9487 42.4019C19.0806 42.7144 19.1465 43.0757 19.1465 43.4858C19.1465 44.0034 19.0439 44.4648 18.8389 44.8701C18.6289 45.2754 18.3481 45.5928 17.9966 45.8223C17.6401 46.0518 17.2373 46.1665 16.7881 46.1665C16.3682 46.1665 15.9971 46.0884 15.6748 45.9321C15.3477 45.771 15.0742 45.5366 14.8545 45.229C14.6348 44.9165 14.4688 44.5356 14.3564 44.0864C14.2393 43.6372 14.1807 43.1245 14.1807 42.5483L14.1807 41.1641ZM12.7671 36.0518H19V37.8169H11.0752V36.1543L12.7671 36.0518ZM14.7446 36.3667L14.7373 36.938C14.1758 36.9331 13.6606 36.855 13.1919 36.7036C12.7231 36.5474 12.3203 36.3325 11.9834 36.0591C11.6465 35.7808 11.3877 35.4487 11.207 35.063C11.0215 34.6772 10.9287 34.2476 10.9287 33.7739C10.9287 33.3931 10.9824 33.0488 11.0898 32.7412C11.1924 32.4287 11.3608 32.1626 11.5952 31.9429C11.8296 31.7183 12.1348 31.5474 12.5107 31.4302C12.8818 31.313 13.3384 31.2544 13.8804 31.2544H19V33.0269H13.873C13.4922 33.0269 13.1919 33.083 12.9722 33.1953C12.7476 33.3027 12.5889 33.4614 12.4961 33.6714C12.3984 33.8765 12.3496 34.1328 12.3496 34.4404C12.3496 34.7432 12.4131 35.0142 12.54 35.2534C12.667 35.4927 12.8403 35.6953 13.0601 35.8613C13.2798 36.0225 13.5337 36.147 13.8218 36.2349C14.1099 36.3228 14.4175 36.3667 14.7446 36.3667ZM11.0752 25.8198H12.3643V30.2876H11.0752V25.8198ZM9.13428 28.9985V27.2334H16.8101C17.0542 27.2334 17.2422 27.1992 17.374 27.1309C17.501 27.0576 17.5864 26.9575 17.6304 26.8306C17.6743 26.7036 17.6963 26.5547 17.6963 26.3838C17.6963 26.2617 17.689 26.1445 17.6743 26.0322C17.6597 25.9199 17.645 25.8296 17.6304 25.7612L18.978 25.7539C19.022 25.9004 19.061 26.0713 19.0952 26.2666C19.1294 26.457 19.1465 26.6768 19.1465 26.9258C19.1465 27.3311 19.0757 27.6899 18.9341 28.0024C18.7876 28.3149 18.5508 28.5591 18.2236 28.7349C17.8965 28.9106 17.4619 28.9985 16.9199 28.9985H9.13428ZM16.854 20.0117C16.6782 20.0117 16.5195 20.0557 16.3779 20.1436C16.2314 20.2314 16.0996 20.3999 15.9824 20.6489C15.8652 20.8931 15.7578 21.2544 15.6602 21.7329C15.5674 22.1528 15.4575 22.5386 15.3306 22.8901C15.1987 23.2368 15.04 23.5347 14.8545 23.7837C14.6689 24.0327 14.4492 24.2256 14.1953 24.3623C13.9414 24.499 13.6484 24.5674 13.3164 24.5674C12.9941 24.5674 12.689 24.4966 12.4009 24.355C12.1128 24.2134 11.8589 24.0107 11.6392 23.7471C11.4194 23.4834 11.2461 23.1636 11.1191 22.7876C10.9922 22.4067 10.9287 21.9819 10.9287 21.5132C10.9287 20.8491 11.041 20.2803 11.2656 19.8066C11.4854 19.3281 11.7856 18.9619 12.1665 18.708C12.5425 18.4541 12.9673 18.3271 13.4409 18.3271V20.0923C13.231 20.0923 13.0356 20.146 12.855 20.2534C12.6694 20.356 12.5205 20.5122 12.4082 20.7222C12.291 20.9321 12.2324 21.1958 12.2324 21.5132C12.2324 21.8159 12.2813 22.0674 12.3789 22.2676C12.4717 22.4629 12.5938 22.6094 12.7451 22.707C12.8965 22.7998 13.0625 22.8462 13.2432 22.8462C13.375 22.8462 13.4946 22.8218 13.6021 22.7729C13.7046 22.7192 13.7998 22.6313 13.8877 22.5093C13.9707 22.3872 14.0488 22.2212 14.1221 22.0112C14.1953 21.7964 14.2661 21.5278 14.3345 21.2056C14.4614 20.6001 14.625 20.0801 14.8252 19.6455C15.0205 19.2061 15.2744 18.8691 15.5869 18.6348C15.8945 18.4004 16.2852 18.2832 16.7588 18.2832C17.1104 18.2832 17.4326 18.3589 17.7256 18.5103C18.0137 18.6567 18.2651 18.8716 18.48 19.1548C18.6899 19.438 18.8535 19.7773 18.9707 20.1729C19.0879 20.5635 19.1465 21.0029 19.1465 21.4912C19.1465 22.209 19.0195 22.8169 18.7656 23.3149C18.5068 23.813 18.1772 24.1914 17.7769 24.4502C17.3716 24.7041 16.9517 24.8311 16.5171 24.8311V23.1245C16.8442 23.105 17.1055 23.0146 17.3008 22.8535C17.4912 22.6875 17.6304 22.4824 17.7183 22.2383C17.8013 21.9893 17.8428 21.7329 17.8428 21.4692C17.8428 21.1519 17.8013 20.8857 17.7183 20.6709C17.6304 20.4561 17.5132 20.2925 17.3667 20.1802C17.2153 20.0679 17.0444 20.0117 16.854 20.0117Z" fill="#2F2F2F"/>
</svg>
